<svg width="219" height="102" viewBox="0 0 219 102" fill="none" xmlns="http://www.w3.org/2000/svg">
<path d="M77.1046 0H22.8954C10.2706 0 0 10.0441 0 22.3898V47.2032C0 59.5493 10.2706 69.5929 22.8954 69.5929H38.317L61.1376 87.3757L78.7033 101.063V78.7941V69.539C90.5855 68.7345 100 59.0243 100 47.2032V22.3898C100 10.0436 89.7289 0 77.1046 0ZM89.1211 47.2032C89.1211 53.5602 83.7407 58.714 77.1046 58.714H67.8244V78.7941L42.0555 58.714H22.8954C16.2588 58.714 10.8789 53.5602 10.8789 47.2032V22.3898C10.8789 16.0327 16.2588 10.8789 22.8954 10.8789H77.1041C83.7403 10.8789 89.1206 16.0327 89.1206 22.3898V47.2032H89.1211Z" fill="#008080"/>
<path d="M92.4354 99.8302L92.3729 99.7053C92.3104 99.5179 91.9356 99.3305 91.6857 99.3305C91.6233 99.3305 91.4983 99.3305 91.4983 99.2055C91.4983 99.1431 91.3109 99.0806 91.061 99.0806C90.7487 99.0181 90.7487 98.9556 90.7487 98.8307C90.7487 98.6433 90.6862 98.5808 90.5613 98.5808C90.4988 98.5808 90.3739 98.5184 90.3739 98.4559C90.3114 98.3309 89.9366 98.1435 89.8116 98.1435H89.7492C89.7492 98.0811 89.5618 97.8937 89.3119 97.6438C89.062 97.3939 88.8121 97.0815 88.7496 96.8317C88.6247 96.6442 88.4998 96.3319 88.3748 96.207L88.2499 95.7697C88.2499 95.7072 88.1249 95.5823 88.0625 95.5823L88 95.5198L88.0625 95.3948L88.1874 95.3324L88.3124 95.3948L88.3748 95.5198C88.4373 95.5198 88.4998 95.4573 88.4998 95.3324C88.4998 95.2699 88.4373 95.2074 88.3748 95.2074H88.2499C88.2499 95.145 88.3124 95.0825 88.4373 95.02C88.6247 95.02 88.6247 94.9576 88.6247 94.7077C88.6247 94.4578 88.6247 94.3329 88.4998 94.3329C88.3748 94.2704 88.2499 94.1454 88.2499 94.0205L88.3124 93.8956V93.7081C88.3124 93.6457 88.3124 93.5832 88.3748 93.5832C88.4373 93.5832 88.4373 93.6457 88.4373 93.7081V93.8331C88.4373 94.0205 88.4998 94.1454 88.4998 94.1454C88.6247 94.1454 88.6247 93.8956 88.6247 93.6457V93.3958L88.5622 93.2709L88.4998 93.3958L88.4373 93.4583C88.3748 93.4583 88.3124 93.3958 88.3124 93.2084C88.3124 93.0834 88.3748 93.021 88.4998 93.021C88.5622 93.021 88.5622 93.021 88.5622 93.0834V93.2084L88.6247 93.1459L88.6872 92.9585C88.6872 92.7711 88.5622 92.5212 88.4373 92.5212L88.3748 92.4587C88.3748 92.3963 88.4373 92.3963 88.4998 92.3963C88.5622 92.3963 88.6247 92.3338 88.6247 92.2089C88.6247 92.0215 88.5622 91.959 88.5622 91.959L88.4998 91.8965L88.5622 91.7716C88.6247 91.7091 88.6247 91.5217 88.6247 91.3343C88.6247 91.2093 88.6872 91.0844 88.7496 91.0844C88.7496 91.0844 88.8121 91.0844 88.8121 91.0219C88.8121 90.9595 88.7496 90.9595 88.7496 90.9595H88.6247V90.897C88.6247 90.8345 88.6247 90.8345 88.6872 90.8345L88.7496 90.7096V90.6471C88.6872 90.5222 88.6872 90.5222 88.6872 89.835C88.6872 89.5226 88.6247 89.3352 88.4998 89.2103C88.4373 89.1478 88.4373 89.0854 88.4373 89.0229H88.5622C88.6247 89.0229 88.6872 88.8355 88.6872 88.3357V87.8984C88.6872 86.8364 88.6872 85.2747 88.7496 84.7749L88.8121 83.9003V83.0882C88.8121 82.8383 88.7496 82.7759 88.6247 82.7759C88.5622 82.7134 88.4998 82.401 88.4998 82.2136L88.5622 82.0262C88.6247 82.0262 88.6247 82.1512 88.6872 82.3386L88.7496 82.526C88.8121 82.526 88.8121 82.401 88.8746 82.0262C88.8746 81.6514 88.8746 81.5265 88.7496 81.5265C88.6872 81.5265 88.6247 81.4015 88.6247 81.2766V81.0892C88.6247 80.9642 88.6872 80.9018 88.6872 80.9018L88.8121 80.9642C88.8746 80.9642 88.8746 80.8393 88.8746 80.402C88.8746 79.9647 88.8746 79.8398 88.7496 79.8398C88.6872 79.8398 88.6247 79.7148 88.6247 79.5899V79.5274C88.6872 79.5274 88.7496 79.5899 88.8121 79.6524L88.8746 79.7148L88.8121 79.34C88.6872 79.34 88.4998 79.1526 88.4998 79.0277V78.9027L88.7496 79.1526L88.6872 78.5279C88.6872 78.403 88.6247 78.1531 88.5622 78.0906L88.4998 77.8407L88.5622 77.5908C88.6872 77.341 88.8121 77.216 88.9995 77.216L89.1869 77.2785C89.2494 77.341 89.4368 77.4034 89.6242 77.4034H89.8116C90.0615 77.4034 90.2489 77.4659 90.2489 77.5284L90.3739 77.6533C90.4988 77.7158 90.7487 77.9032 90.9986 78.1531C91.186 78.3405 91.4359 78.5279 91.4983 78.5279H91.6233C91.7482 78.5279 92.123 78.8402 92.123 78.9652C92.123 79.0277 92.248 79.0901 92.3104 79.1526C92.4354 79.2151 92.4354 79.2775 92.4354 79.34C92.4354 79.4025 92.4354 79.5274 92.4979 79.6524L92.6853 79.9022L92.5603 79.4649L92.6853 79.4025C92.7477 79.4025 92.8102 79.4649 92.8102 79.5899C92.8727 80.7768 92.9351 81.7763 92.9976 82.0887L93.0601 82.0262L93.185 81.9638C93.31 81.9638 93.3724 82.0887 93.3724 82.3386L93.31 82.7134C93.31 82.9008 93.3724 83.0257 93.4349 83.0257H93.4974C93.6223 83.0257 93.6223 82.9008 93.6223 82.8383V82.7134L93.7473 82.401C93.8722 82.3386 93.9971 82.2136 93.9971 82.1512L94.1221 81.9013L94.1845 81.8388L94.247 81.9013C94.247 81.9638 94.247 81.9638 94.3095 81.9638C94.372 81.9638 94.372 81.8388 94.372 81.7763C94.372 81.6514 94.4344 81.5889 94.4969 81.5889L94.5594 81.464C94.5594 81.4015 94.6218 81.2766 94.7468 81.1516L94.8093 80.9642C94.8093 80.9018 94.7468 80.8393 94.6843 80.8393L94.6218 80.9018C94.4969 80.9018 94.4969 80.9018 94.4969 80.7768C94.5594 80.7143 94.6218 80.6519 94.7468 80.6519L95.2465 80.402L95.5589 80.1521C95.3715 79.9647 95.309 79.8398 95.309 79.7773C95.3715 79.7773 95.3715 79.7773 95.3715 79.8398L95.434 79.9022C95.4964 79.9022 95.6838 79.7773 95.7463 79.5899L95.8712 79.34L95.6214 79.5274C95.5589 79.5899 95.5589 79.6524 95.4964 79.6524H95.434C95.434 79.6524 95.5589 79.4025 95.8088 79.0901L96.1836 78.6528L96.3085 78.7153C96.4959 78.7153 96.6834 78.5279 96.8708 78.278V78.1531L96.7458 78.278L96.5584 78.3405L96.8708 77.8407L96.8083 77.7783H96.8708C96.9332 77.7783 96.9957 77.7782 97.0582 77.7158L97.1831 77.6533L97.3705 77.7158C97.433 77.7158 97.6829 77.5908 98.1202 77.216L98.6824 76.9037H98.8073L98.6824 76.8412L98.3076 76.9037L98.1826 76.9661L98.0577 76.9037L97.9952 76.8412V77.0286C97.9952 77.1535 97.9328 77.216 97.8078 77.216L97.6204 77.1535L97.4955 77.0911L97.5579 77.0286H97.6829L97.9328 76.9037C97.9952 76.7787 98.1202 76.6538 98.1826 76.6538C98.2451 76.6538 98.4325 76.5913 98.5575 76.4664C98.6824 76.3414 98.9323 76.2165 99.0572 76.2165C99.1822 76.2165 99.3696 76.154 99.4945 76.0291L99.7444 75.9666C99.7444 75.9666 99.8069 75.9666 99.9318 75.8417L100.369 75.7167C100.432 75.6543 100.681 75.5918 100.806 75.5918C100.931 75.5918 101.056 75.5918 101.119 75.5293H101.556C101.806 75.5293 102.056 75.5293 102.181 75.4669C102.431 75.4044 102.68 75.4044 102.868 75.4044C102.993 75.4044 103.118 75.4044 103.18 75.4669L103.493 75.5293C103.742 75.5918 103.93 75.6543 104.055 75.7792C104.18 75.9041 104.305 76.0291 104.43 76.0291C104.492 76.0291 104.555 76.0916 104.617 76.2165C104.617 76.3414 104.68 76.4039 104.867 76.4039C104.992 76.4039 105.054 76.4039 105.054 76.4664L104.929 76.6538C104.929 76.7787 105.054 76.9037 105.242 76.9037C105.304 76.9037 105.367 76.9661 105.367 77.0286L105.429 77.0911L105.554 77.1535L105.492 77.341C105.492 77.5284 105.492 77.5908 105.554 77.5908L105.679 77.4659C105.742 77.4659 105.742 77.5284 105.804 77.5908C105.866 77.6533 105.929 77.7158 105.991 77.7158H106.054C106.116 77.7158 106.179 77.7783 106.179 77.9032L106.054 78.0281C106.054 78.0906 106.116 78.1531 106.241 78.2155C106.366 78.278 106.429 78.403 106.429 78.5279L106.366 78.6528H106.304C106.054 78.6528 105.929 78.6528 105.929 78.7778V78.8402L105.804 79.0901C105.679 79.1526 105.554 79.2775 105.429 79.4025C105.304 79.5274 105.179 79.5274 104.492 79.5899C103.68 79.5899 103.43 79.5899 102.993 79.7773H102.743L102.805 79.6524L102.868 79.5899V79.5274C102.868 79.5274 102.743 79.5899 102.68 79.7148C102.556 79.9022 102.368 80.0272 102.243 80.0272L102.118 79.9647L102.056 79.9022V79.9647C102.056 80.0272 102.056 80.0272 101.993 80.0272H101.868L102.056 80.2146L101.993 80.2771H101.931L101.868 80.2146C101.868 80.2146 101.806 80.2146 101.743 80.3395C101.681 80.402 101.556 80.5269 101.494 80.5269C101.431 80.5269 101.369 80.5269 101.369 80.5894V80.6519C101.369 80.7143 101.369 80.7768 101.306 80.7768C101.244 80.7768 101.119 80.7143 101.119 80.6519L100.869 80.9642L101.119 80.9018L100.994 81.0892L100.869 81.1516L100.681 80.9642V81.1516C100.681 81.3391 100.557 81.5265 100.369 81.5265C100.307 81.5265 100.244 81.5265 100.244 81.5889V81.7139C100.182 81.7139 100.119 81.7139 100.119 81.6514C100.057 81.5889 99.9943 81.5265 99.8693 81.5265C99.8069 81.5265 99.7444 81.5889 99.7444 81.6514L99.8069 81.7139C99.8693 81.7139 99.8693 81.7763 99.8693 81.8388C99.8693 81.9013 99.8693 81.9013 99.8069 81.9013H99.7444L99.6819 81.9638C99.6195 82.1512 99.557 82.2136 99.432 82.2136H99.2446C99.1822 82.2136 99.1197 82.2136 99.1197 82.2761V82.401C99.1197 82.526 99.0572 82.6509 98.9948 82.7134C98.8698 82.7759 98.7449 83.0257 98.7449 83.2132C98.7449 83.2756 98.6824 83.3381 98.6199 83.3381L98.495 83.588C98.495 83.7129 98.4325 83.7754 98.3701 83.8379L98.2451 83.9003L98.3076 84.0877C98.3076 84.2127 98.3076 84.2752 98.1826 84.2752C98.1202 84.2752 98.0577 84.2751 98.0577 84.2127C97.9952 84.2127 97.9328 84.3376 97.8078 84.4626L97.5579 84.7124L97.7454 84.8999L97.4955 85.1497L97.433 85.0873C97.433 85.0248 97.3705 85.0248 97.1831 85.0248C97.0582 85.0873 96.9957 85.1497 96.9957 85.2122C96.9957 85.2747 96.9957 85.2747 97.1206 85.2747H97.1831L97.1206 85.4621C97.0582 85.587 96.9957 85.6495 96.9332 85.6495C96.8708 85.6495 96.8708 85.6495 96.8708 85.587L96.8083 85.8369C96.8083 86.0868 96.8083 86.2742 96.8708 86.2742C96.8708 86.3367 96.8708 86.3991 96.6834 86.5241C96.5584 86.649 96.4959 86.7115 96.4335 86.7115C96.3085 86.7115 96.0587 86.9614 96.0587 87.1488C96.0587 87.2113 96.0587 87.2112 95.9962 87.2112C95.9337 87.2112 95.9337 87.3362 95.9337 87.5861V87.836L95.8712 87.7735C95.8088 87.7735 95.7463 87.8984 95.7463 88.0858V88.3982C95.6838 88.3982 95.6214 88.3357 95.6214 88.2732V88.1483L95.4964 88.3357L95.3715 88.773C95.3715 88.8979 95.309 88.8979 95.2465 88.8979C95.1841 88.8979 95.1216 88.9604 95.1216 89.0229V89.0854C95.1216 89.1478 95.0591 89.3352 94.9967 89.3977C94.8717 89.5226 94.8093 89.6476 94.8093 89.7101C94.8093 89.8975 94.6843 90.0849 94.6218 90.0849C94.5594 90.0849 94.5594 90.0224 94.5594 89.9599V89.8975C94.5594 89.7725 94.4969 89.7101 94.4344 89.7101L94.372 89.7725L94.4344 89.835C94.4969 89.835 94.5594 90.0849 94.5594 90.3348C94.5594 90.7096 94.5594 90.7721 94.372 90.9595C94.247 91.0844 94.1845 91.0844 94.1845 91.1469L94.372 91.2718L94.247 91.5217L94.4344 91.7091C94.4344 91.7716 94.372 91.834 94.3095 91.834C94.247 91.834 94.247 91.834 94.247 91.7716C94.247 91.7091 94.247 91.7091 94.1845 91.7091C94.1845 91.7091 94.0596 91.834 94.0596 92.0215L93.8722 92.5837C93.7473 92.7086 93.7473 93.021 93.6848 93.3333C93.6848 93.3958 93.6223 93.5207 93.5598 93.5207C93.4349 93.5832 93.3724 93.6457 93.3724 93.7081C93.3724 93.7706 93.3724 93.8331 93.31 93.8331H93.2475L93.31 94.0205L93.3724 94.2704C93.31 94.3329 93.2475 95.3948 93.2475 95.8946L93.31 97.5813C93.3724 97.6438 93.3724 97.7062 93.4349 98.0811L93.6223 98.5808C93.6223 98.6433 93.4974 98.7058 93.3724 98.7058H93.31C93.185 98.7058 93.185 98.7058 93.185 98.8932V99.0181C93.185 99.1431 93.185 99.2055 93.1226 99.268C93.0601 99.3305 92.9976 99.3929 92.9976 99.4554C92.9976 99.5179 92.8727 99.5803 92.7477 99.5803C92.6228 99.5803 92.5603 99.5179 92.5603 99.3929V99.2055L92.4979 99.268C92.4354 99.268 92.4354 99.3305 92.4354 99.3929L92.5603 99.6428L92.4354 99.8302ZM99.0572 76.5913L99.1197 76.5288C99.1197 76.4664 99.1197 76.4039 99.0572 76.4039C98.9948 76.4039 98.9948 76.4664 98.9948 76.5288L99.0572 76.5913ZM97.3081 77.4034L97.2456 77.341L97.3081 77.2785V77.1535H97.3705L97.433 77.2785C97.433 77.341 97.3705 77.4034 97.3081 77.4034ZM96.9957 78.0281L97.1206 77.9657C97.1831 77.9032 97.2456 77.8407 97.2456 77.7783H97.1831C97.1206 77.7783 96.9957 77.9032 96.9957 78.0281ZM96.6834 77.9657V77.9032H96.6209C96.6209 77.8407 96.6209 77.7783 96.6834 77.7783L96.7458 77.9032L96.6834 77.9657ZM97.6829 78.6528L97.8078 78.5279C97.8078 78.4654 97.7454 78.403 97.6829 78.403L97.5579 78.3405L97.6204 78.4654C97.6829 78.5279 97.6829 78.5904 97.6829 78.6528H97.6204H97.6829V78.6528ZM96.371 78.6528H96.3085V78.5904C96.371 78.5279 96.371 78.4654 96.4335 78.4654H96.4959V78.5279C96.4335 78.6528 96.371 78.6528 96.371 78.6528ZM98.7449 78.8402L98.9948 78.7153L99.1197 78.5904L98.8698 78.7153C98.7449 78.7778 98.7449 78.8402 98.7449 78.8402ZM95.8088 78.8402L95.8712 78.7153L95.9337 78.6528L95.8712 78.7778L95.8088 78.8402ZM95.8712 79.2151C95.9337 79.2151 96.1211 79.0901 96.2461 78.9652L96.3085 78.8402C96.2461 78.8402 95.8712 79.1526 95.8712 79.2151ZM97.433 78.9652L97.4955 78.8402H97.433L97.3081 78.9652H97.433ZM104.117 79.34L104.242 79.2775L104.18 79.1526L103.992 79.2775C103.992 79.2775 103.992 79.34 104.117 79.34V79.34ZM96.4959 80.1521L96.5584 79.9647H96.4959L96.371 80.0896C96.371 80.1521 96.4335 80.1521 96.4959 80.1521V80.1521ZM101.056 80.4645C101.181 80.4645 101.369 80.402 101.556 80.2771L101.681 80.1521L101.619 80.0272H101.556C101.556 80.0272 101.494 80.0272 101.494 80.0896L101.431 80.1521L101.306 80.0896L101.369 80.1521C101.369 80.2146 101.306 80.2771 101.119 80.2771L100.931 80.402L101.056 80.4645ZM100.494 80.2771L100.557 80.2146L100.432 80.0896L100.369 80.1521L100.494 80.2771ZM94.8717 80.4645C94.8093 80.4645 94.8093 80.4645 94.8093 80.402C94.8093 80.402 94.8717 80.2771 94.9967 80.2771L95.1216 80.2146L94.8717 80.4645ZM88.6247 80.5269L88.5622 80.402L88.6247 80.3395C88.6872 80.3395 88.6872 80.402 88.6872 80.402C88.6872 80.4645 88.6872 80.5269 88.6247 80.5269ZM98.0577 80.7768L98.1202 80.7143L97.9952 80.5894V80.6519L98.0577 80.7768ZM99.7444 80.8393L99.8693 80.7768C99.8693 80.7143 99.8693 80.6519 99.8069 80.6519L99.6819 80.7768C99.6819 80.7768 99.6819 80.8393 99.7444 80.8393ZM93.1226 81.5265L93.0601 81.2766C93.0601 81.1516 93.0601 81.0267 93.1226 81.0267C93.185 81.0267 93.185 81.1516 93.185 81.2766C93.185 81.4015 93.185 81.5265 93.1226 81.5265ZM94.4344 81.1516C94.4344 81.1516 94.372 81.1516 94.372 81.0892C94.372 81.0267 94.4344 81.0267 94.4969 81.0267V81.0892C94.4969 81.1516 94.4344 81.1516 94.4344 81.1516ZM95.309 81.7139L95.3715 81.6514C95.3715 81.5889 95.4964 81.464 95.5589 81.4015L95.6214 81.3391L95.5589 81.2766L95.3715 81.4015C95.309 81.464 95.2465 81.464 95.1841 81.464H95.1216L95.1841 81.5889L95.309 81.7139ZM98.3076 81.7139C98.3701 81.7139 98.3701 81.7139 98.3701 81.6514L98.4325 81.5889L98.3701 81.5265H98.3076C98.2451 81.5265 98.2451 81.5889 98.2451 81.6514L98.3076 81.7139ZM98.6199 81.9013C98.7449 81.9013 98.8698 81.8388 98.9323 81.7763L99.0572 81.5889H98.9323C98.8698 81.5889 98.7449 81.6514 98.6199 81.7763L98.5575 81.9013H98.6199ZM88.6247 81.8388C88.5622 81.8388 88.5622 81.7763 88.5622 81.7763L88.6872 81.6514L88.7496 81.7763L88.6247 81.8388ZM99.0572 82.0887C99.0572 82.0887 99.1822 82.0262 99.1822 81.9638C99.2446 81.9638 99.3071 81.8388 99.3071 81.7763V81.7139C99.2446 81.7139 99.1822 81.7139 99.1197 81.7763L98.9948 82.0262C98.9948 82.0887 98.9948 82.0887 99.0572 82.0887ZM99.432 82.0887L99.6195 81.7763H99.557L99.3696 81.9638C99.3696 82.0887 99.3696 82.0887 99.432 82.0887ZM92.9976 82.4635C93.0601 82.4635 93.0601 82.401 93.1226 82.3386L93.31 82.2136C93.31 82.2136 93.2475 82.1512 93.1226 82.1512C92.9976 82.1512 92.9976 82.2136 92.9976 82.3386V82.4635V82.4635ZM98.495 82.6509C98.5575 82.6509 98.6199 82.5885 98.7449 82.4635L98.8698 82.2136H98.8073C98.6824 82.2761 98.495 82.5885 98.495 82.6509ZM94.6218 82.6509L94.8093 82.5885L94.9342 82.526L94.8093 82.4635H94.6843L94.4969 82.5885L94.6218 82.6509ZM97.7454 82.9008L97.8703 82.7759C97.9952 82.7134 98.0577 82.5885 98.0577 82.526C98.0577 82.526 98.0577 82.4635 97.9952 82.4635C97.9952 82.526 97.9328 82.526 97.8703 82.5885L97.7454 82.8383V82.9008ZM95.6838 82.7134L95.7463 82.6509L95.6838 82.526H95.6214L95.4964 82.5885L95.6838 82.7134ZM94.1845 82.8383L94.3095 82.7759L93.9347 82.5885L93.9971 82.7134C93.9971 82.7759 94.1221 82.8383 94.1845 82.8383V82.8383ZM93.0601 83.2132L93.1226 83.0882L92.9976 82.7759V83.2132H93.0601V83.2132ZM96.1211 83.0257C96.1836 83.0257 96.2461 82.9633 96.2461 82.9008C96.2461 82.8383 96.2461 82.8383 96.1836 82.8383L96.0587 82.9008L96.1211 83.0257ZM98.6199 83.0257C98.6824 83.0257 98.7449 82.9633 98.7449 82.9008L98.6824 82.8383L98.5575 82.9633L98.6199 83.0257ZM94.372 83.0882C94.4344 83.0882 94.4344 83.0257 94.4969 82.9633V82.9008C94.4344 82.9008 94.372 82.9633 94.372 83.0257V83.0882ZM88.6247 83.3381C88.5622 83.3381 88.4998 83.2756 88.4998 83.1507C88.4998 83.0257 88.4998 82.9633 88.5622 82.9633L88.6872 83.2132C88.6872 83.2756 88.6872 83.3381 88.6247 83.3381V83.3381ZM93.8722 83.7129L94.0596 83.6504L94.1845 83.5255C94.1845 83.5255 94.1845 83.4006 94.247 83.3381L94.372 83.2132C94.247 83.2132 93.8722 83.588 93.8722 83.7129V83.7129ZM97.9952 83.4006C98.0577 83.4006 98.1202 83.4006 98.1202 83.3381C98.1202 83.2756 98.1202 83.2132 98.0577 83.2132L97.9328 83.2756C97.9328 83.4006 97.9328 83.4006 97.9952 83.4006ZM93.0601 83.5255C93.1226 83.5255 93.1226 83.463 93.1226 83.4006C93.1226 83.4006 93.1226 83.3381 93.0601 83.3381C92.9976 83.3381 92.9976 83.4006 92.9976 83.463V83.5255H93.0601ZM88.5622 83.588L88.4373 83.5255L88.5622 83.4006L88.6247 83.5255L88.5622 83.588ZM88.4998 84.0253L88.4373 83.9003L88.5622 83.8379L88.6247 83.9003L88.4998 84.0253ZM93.3724 84.5875L93.6223 84.4626L93.6848 84.525V84.4626C93.6848 84.4001 93.6848 84.4001 93.6223 84.4001C93.5598 84.4001 93.4974 84.4001 93.4349 84.4626L93.3724 84.5875ZM88.4373 84.7749L88.3748 84.65L88.4373 84.5875L88.5622 84.65C88.5622 84.7124 88.4998 84.7749 88.4373 84.7749V84.7749ZM88.4998 85.8369C88.4373 85.8369 88.4373 85.7744 88.4373 85.6495C88.4373 85.587 88.4373 85.5246 88.4998 85.5246L88.5622 85.6495L88.4998 85.8369ZM95.8088 86.1493L95.8712 85.9618H95.8088L95.7463 86.0868C95.7463 86.1493 95.7463 86.1493 95.8088 86.1493V86.1493ZM96.4959 86.2117C96.5584 86.2117 96.5584 86.2117 96.5584 86.1493L96.4959 85.9618H96.4335C96.371 85.9618 96.371 86.0243 96.371 86.0868V86.1493L96.4959 86.2117ZM95.2465 86.649C95.309 86.649 95.309 86.5865 95.309 86.5241C95.309 86.5241 95.309 86.4616 95.2465 86.4616H95.1841L95.1216 86.5241C95.1216 86.649 95.1841 86.649 95.2465 86.649ZM95.7463 86.649L95.8712 86.5865C95.8712 86.5241 95.8712 86.5241 95.7463 86.5241L95.6214 86.5865C95.6214 86.649 95.6838 86.649 95.7463 86.649ZM93.7473 87.2737C93.8097 87.2737 93.8097 87.2113 93.8097 87.1488L93.7473 87.0863C93.6848 87.0863 93.6848 87.0863 93.6848 87.1488L93.7473 87.2737ZM94.9967 87.3987L95.0591 87.2737C95.0591 87.2113 95.0591 87.1488 94.9967 87.1488C94.9342 87.1488 94.8717 87.2112 94.8717 87.3362L94.9967 87.3987ZM93.9971 87.4611L94.0596 87.3362V87.2737H93.9971C93.9347 87.3362 93.8722 87.3987 93.8722 87.4611H93.9971V87.4611ZM95.8088 87.3987L95.7463 87.2737L95.6214 87.3362C95.6214 87.3987 95.6838 87.3987 95.7463 87.3987H95.8088ZM88.4373 87.7735L88.3748 87.711C88.3124 87.6485 88.3124 87.5861 88.3124 87.5236H88.3748C88.4373 87.5236 88.4373 87.5236 88.4373 87.5861V87.7735ZM95.1216 88.4607C95.1841 88.4607 95.2465 88.3982 95.2465 88.3357C95.2465 88.3357 95.2465 88.2732 95.1841 88.2732H95.1216L95.0591 88.4607H95.1216V88.4607ZM94.8093 89.2728C94.8717 89.2728 94.8717 89.2103 94.8717 89.1478L94.8093 89.0854L94.7468 89.1478C94.7468 89.2103 94.7468 89.2728 94.8093 89.2728ZM93.7473 90.8345C93.7473 90.8345 93.8097 90.8345 93.8097 90.7721C93.8097 90.7096 93.8097 90.7096 93.7473 90.7096C93.7473 90.7096 93.6848 90.7096 93.6848 90.7721V90.8345H93.7473ZM93.6223 91.2093C93.6848 91.2093 93.6848 91.1469 93.6848 91.0844C93.6223 90.9595 93.5598 90.9595 93.5598 90.9595C93.4974 90.9595 93.4974 91.0219 93.4974 91.0844C93.4974 91.1469 93.5598 91.2093 93.6223 91.2093ZM93.3724 92.5212C93.4349 92.5212 93.4974 92.4587 93.4974 92.3338L93.4349 92.2089L93.3724 92.3338V92.5212ZM93.31 93.1459L93.4974 93.0834L93.6223 92.896C93.6223 92.8336 93.5598 92.8336 93.5598 92.8336C93.4349 92.896 93.31 92.9585 93.31 93.0834V93.1459ZM121.422 101.142L121.359 101.017C121.297 100.892 121.297 100.83 121.172 100.83L120.922 100.955L120.797 101.08L120.672 100.955L120.547 101.08L120.422 101.017C120.422 100.955 120.422 100.892 120.485 100.83L120.547 100.767H120.422C120.36 100.767 120.297 100.767 120.297 100.83V101.08L119.985 100.767C119.86 100.58 119.797 100.517 119.735 100.517H119.672C119.672 100.517 119.61 100.455 119.61 100.33C119.547 99.9552 119.36 99.6428 119.298 99.6428C119.235 99.6428 119.235 99.7053 119.235 99.7678C119.235 99.8302 119.235 99.8927 119.173 99.8927L118.923 99.7678C118.798 99.6428 118.735 99.268 118.423 98.0186C118.361 97.7687 118.361 96.7692 118.298 95.4573C118.298 94.2704 118.298 93.2084 118.236 93.1459V92.7086C118.236 92.5212 118.236 92.0839 118.173 91.7716C118.173 91.3968 118.173 91.2718 118.111 91.2718L117.798 91.7716C117.736 91.834 117.736 91.8965 117.673 91.8965C117.673 91.834 117.673 91.834 117.611 91.834C117.548 91.8965 117.548 92.0215 117.548 92.1464C117.548 92.2713 117.548 92.3963 117.423 92.5212L117.236 92.896C117.236 92.9585 117.174 93.021 116.924 93.021H116.861H116.924L117.049 93.1459L116.924 93.2084C116.861 93.2084 116.736 93.3958 116.611 93.5832C116.549 93.7082 116.424 93.8956 116.361 93.8956L116.237 94.083C116.237 94.2704 115.924 94.5827 115.799 94.5827H115.737C115.674 94.5827 115.674 94.5827 115.674 94.6452V94.7077L115.612 94.8951L115.549 95.2074C115.549 95.3948 115.362 95.7072 115.112 95.9571C114.925 96.082 114.8 96.2694 114.8 96.3319C114.8 96.4568 114.737 96.4568 114.487 96.4568C114.425 96.4568 114.425 96.4568 114.425 96.5193L114.487 96.6442C114.487 96.8317 114.05 97.3939 113.8 97.5188C113.675 97.5188 113.675 97.5813 113.675 97.6438C113.675 97.8312 112.738 98.7058 112.551 98.7058L112.176 98.8932C112.051 99.0181 111.739 99.1431 111.489 99.2055L110.677 99.268C110.489 99.268 110.302 99.268 110.302 99.2055C110.302 99.2055 110.302 99.1431 110.177 99.1431C109.677 99.0806 109.177 99.0181 109.052 98.8932C108.99 98.8307 108.865 98.8307 108.865 98.8307L108.49 98.7058C108.365 98.5808 108.115 98.4559 107.99 98.4559C107.928 98.3934 107.866 98.3934 107.866 98.3309L107.99 98.2685L107.803 98.1435C107.741 98.0811 107.616 98.0811 107.553 98.0811H107.491V98.0186C107.491 97.9561 107.428 97.8937 107.303 97.8937C107.178 97.8937 106.991 97.7062 106.804 97.5813C106.616 97.3939 106.366 97.2065 106.241 97.144C106.054 97.0815 105.929 96.9566 105.866 96.8317C105.866 96.7067 105.742 96.5818 105.679 96.5193C105.617 96.4568 105.554 96.3944 105.554 96.3319C105.554 96.2694 105.492 96.207 105.429 96.1445C104.804 95.4573 104.242 94.7077 103.93 94.0205C103.867 93.8956 103.742 93.5207 103.555 93.2709C103.43 92.8336 103.305 92.5212 103.243 91.834L103.18 90.7096L103.243 90.1473C103.305 90.1473 103.305 90.0224 103.305 89.835C103.305 89.5851 103.368 89.3977 103.493 89.2728C103.618 89.2103 103.742 88.9604 103.805 88.773C103.867 88.5231 103.93 88.3357 104.055 88.2108C104.117 88.1483 104.18 88.0234 104.18 87.8984C104.18 87.836 104.242 87.711 104.305 87.711C104.367 87.6485 105.054 86.649 105.054 86.5865C105.054 86.5241 105.054 86.4616 105.117 86.4616C105.179 86.4616 105.179 86.4616 105.179 86.3367C105.179 86.2742 105.242 86.2117 105.304 86.2117L105.804 85.587C105.929 85.5246 106.116 85.2747 106.116 85.0873L106.054 84.9623C106.054 84.8999 106.054 84.8999 106.116 84.8999H106.179L106.304 84.8374L106.366 84.7749L106.304 84.7124C106.304 84.7124 106.304 84.65 106.366 84.65C106.491 84.5875 106.616 84.4001 106.741 84.2127C106.928 84.0253 107.053 83.7754 107.116 83.7754C107.303 83.5255 108.24 82.401 108.24 82.3386L108.428 82.2136C108.49 82.2136 108.615 82.0887 108.615 81.9638C108.678 81.7763 109.802 80.5894 110.427 80.1521L111.864 78.9652L112.551 78.5904C112.676 78.5279 112.738 78.4654 112.738 78.403V78.278L113.051 78.1531C113.488 77.9657 114.737 77.6533 115.237 77.5908L115.799 77.5284L115.924 77.4659C115.987 77.4659 115.987 77.5284 115.987 77.5908C115.987 77.6533 116.112 77.7783 116.237 77.9032L116.549 78.1531L116.736 78.2155C116.799 78.2155 116.861 78.278 116.861 78.3405C116.924 78.4654 116.986 78.5904 117.111 78.6528C117.673 78.9652 118.173 79.5274 118.298 79.8398C118.361 80.0896 118.423 80.1521 118.548 80.1521C118.61 80.1521 118.673 80.0272 118.673 79.9647V79.9022H118.735V79.5274H118.798L118.923 79.4649C118.985 79.4025 119.048 78.4654 119.048 77.9032C119.048 77.6533 119.11 77.4034 119.173 77.2785C119.235 77.1535 119.298 76.9661 119.298 76.8412C119.298 76.7163 119.298 76.5913 119.36 76.5913C119.423 76.5913 119.485 76.6538 119.485 76.7163C119.485 76.8412 119.61 76.9037 119.735 76.9037C119.922 76.9661 120.11 77.0286 120.172 77.0911C120.172 77.1535 120.297 77.216 120.422 77.216C120.485 77.216 120.672 77.2785 120.859 77.4034C120.984 77.5284 121.172 77.6533 121.234 77.6533C121.359 77.7158 121.422 77.8407 121.484 77.9657C121.484 78.1531 121.609 78.2155 121.859 78.3405C122.046 78.4654 122.234 78.5904 122.234 78.7153C122.296 78.8402 122.421 79.0277 122.546 79.0901C122.671 79.2151 122.733 79.34 122.733 79.4649C122.733 79.5899 122.796 79.6524 122.858 79.6524L122.983 79.5274H123.046C123.046 79.5274 123.108 79.5899 123.108 79.7148C123.108 79.8398 123.108 80.0272 123.171 80.0272L123.233 81.0892C123.233 81.9638 123.171 82.9633 123.108 83.0882C123.046 83.3381 122.983 84.0253 122.983 84.4626C122.983 84.5875 122.983 84.7124 122.921 84.7749C122.858 84.9623 122.858 85.2122 122.858 85.9618C122.796 86.2742 122.796 86.5865 122.733 86.5865C122.671 86.5865 122.671 86.7115 122.671 86.8364L122.608 87.1488C122.546 87.1488 122.546 87.1488 122.546 87.2112V87.2737C122.546 87.3362 122.546 87.4611 122.484 87.5861L122.421 87.7735L122.546 87.9609L122.421 88.0858L122.546 88.2108L122.421 88.5231C122.359 88.6481 122.359 88.8979 122.359 89.0229C122.359 89.0854 122.296 89.2103 122.234 89.2103C122.171 89.2103 122.171 89.2728 122.171 89.3352L122.234 89.4602C122.296 89.4602 122.359 89.5226 122.359 89.5851L122.296 89.835L122.234 90.2098L122.296 90.2723L122.234 90.4597C122.171 90.5846 122.171 90.8345 122.171 91.0219C122.171 91.2093 122.171 91.3343 122.109 91.3343C122.046 91.3343 122.046 91.3343 122.046 91.3968V91.4592C122.109 91.5217 122.109 92.1464 122.109 92.7711L122.171 94.1454L122.296 94.0205L122.359 94.083L122.234 94.2704C122.109 94.3329 122.109 94.3953 122.109 94.5203C122.171 94.7701 122.296 96.207 122.296 97.0815C122.296 97.3939 122.296 97.6438 122.234 97.6438C122.171 97.6438 122.109 97.7687 122.109 97.8937L122.171 98.1435C122.296 98.2685 122.359 98.5184 122.359 98.6433V98.7682C122.296 98.7682 122.296 98.8307 122.296 98.8932L122.234 99.268L122.109 99.8302C122.109 99.9552 122.109 100.08 122.046 100.143L121.984 100.392C121.984 100.58 121.984 100.58 121.796 100.58H121.734C121.671 100.58 121.671 100.642 121.671 100.83C121.671 100.955 121.671 101.017 121.609 101.017L121.484 100.892L121.422 101.142ZM115.424 77.341H115.237C115.175 77.341 115.175 77.2785 115.175 77.216C115.175 77.216 115.175 77.1535 115.299 77.1535C115.362 77.1535 115.424 77.1535 115.424 77.2785V77.341V77.341ZM115.674 77.4659L115.612 77.4034L115.737 77.2785L115.862 77.4034L115.674 77.4659ZM118.485 80.5894L118.548 80.5269L118.61 80.2771C118.548 80.2771 118.548 80.2771 118.548 80.3395C118.485 80.402 118.423 80.4645 118.423 80.5269L118.485 80.5894ZM108.115 94.9576L108.553 94.8951C108.74 94.8951 108.99 94.8326 109.052 94.7701L109.302 94.6452C109.49 94.5827 110.052 94.3329 110.239 94.1454L110.739 93.7706L110.989 93.5207C111.114 93.2709 111.301 93.0834 111.426 93.0834C111.551 93.0834 112.238 92.2089 112.238 92.0215V91.959L112.363 91.7091C112.301 91.5217 112.301 91.5217 112.113 91.5217L111.801 91.4592C111.739 91.4592 111.739 91.5217 111.739 91.5842C111.676 91.5842 111.676 91.5217 111.676 91.4592C111.676 91.3968 111.739 91.3343 111.864 91.2718L111.989 91.2093V90.9595L112.051 90.897C112.176 90.897 112.301 91.0219 112.301 91.0844H112.176C112.113 91.0844 112.051 91.1469 112.051 91.2718V91.4592C112.426 91.1469 112.801 90.9595 112.926 90.3972C112.988 90.2098 113.113 90.0224 113.3 90.0224C113.425 90.0224 113.488 89.9599 113.488 89.8975C113.488 89.835 113.488 89.835 113.55 89.835H113.675V89.7725C113.675 89.6476 113.738 89.5851 113.8 89.5851C113.863 89.5851 113.925 89.5226 113.925 89.4602L113.863 89.2728L113.988 89.3352C113.988 89.3352 114.05 89.3352 114.05 89.2728C114.05 89.2103 114.113 89.2103 114.175 89.2103C114.237 89.2103 114.3 89.1478 114.3 89.0854C114.3 88.9604 114.3 88.9604 114.237 88.9604L114.175 89.0229V88.9604C114.175 88.8979 114.175 88.7105 114.3 88.5231C114.362 88.4607 114.425 88.3357 114.425 88.2108V88.0858H114.737C114.8 88.0858 114.862 88.0858 114.862 88.0234V87.8984C114.862 87.711 114.925 87.5861 115.175 87.3987C115.362 87.2113 115.424 87.1488 115.424 86.9614V86.8364C115.424 86.5241 115.549 86.2117 115.737 86.2117C115.799 86.2117 115.862 86.1493 115.862 86.0868C115.862 85.9618 115.924 85.8994 115.987 85.8994H116.049C116.049 85.8994 116.112 85.8369 116.112 85.5246V85.4621H116.174L116.299 85.2747C116.299 85.1497 116.361 85.0248 116.424 85.0248C116.486 85.0248 116.486 84.9623 116.486 84.8999L116.424 84.7749L116.549 84.7124C116.611 84.7124 116.674 84.65 116.674 84.525L116.736 84.2752C116.799 84.2752 116.861 84.2127 116.861 84.1502C116.861 84.0877 116.924 84.0877 116.986 84.0877H117.049C117.111 84.0877 117.111 84.0253 117.111 83.7754C117.111 83.7129 117.174 83.6504 117.299 83.588C117.423 83.588 117.423 83.5255 117.423 83.4006V83.2132C117.486 83.2132 117.548 83.0882 117.548 83.0257C117.548 82.9008 117.611 82.7134 117.736 82.5885C117.923 82.3386 117.986 82.1512 117.986 81.9638C117.986 81.7139 117.861 81.5889 117.548 81.5889H117.299C116.736 81.6514 115.862 81.9638 115.862 82.0887C115.862 82.1512 115.799 82.1512 115.737 82.1512H115.674C115.549 82.1512 114.925 82.526 114.925 82.5885C114.925 82.7134 114.737 82.9008 114.425 83.0882L113.863 83.5255C113.738 83.7129 113.613 83.7754 113.55 83.7754C113.55 83.7129 113.613 83.588 113.738 83.5255L113.8 83.3381C113.738 83.3381 113.55 83.5255 113.3 83.7754L112.676 84.2752C112.488 84.4626 111.864 85.1497 111.864 85.2122C111.926 85.2122 112.238 84.8999 112.613 84.525C112.988 84.1502 113.363 83.9003 113.363 83.9003V83.9628C113.363 84.0253 113.238 84.1502 113.113 84.2752C112.926 84.4001 112.801 84.5875 112.801 84.5875C112.801 84.5875 112.551 84.8999 112.238 85.1497L111.676 85.712C111.676 85.7744 111.489 85.9618 111.301 86.2117C111.052 86.5241 110.864 86.7115 110.864 86.774L110.739 86.8364L110.677 86.774C110.677 86.649 110.989 86.2742 111.364 85.8369C111.551 85.6495 111.676 85.5246 111.676 85.4621C111.551 85.4621 111.301 85.712 110.614 86.5241L110.364 86.8989L110.552 86.8364C110.552 86.9614 110.427 87.0863 110.239 87.3987C109.802 88.0234 109.615 88.2732 109.615 88.3982L109.677 88.5231L109.552 88.4607L109.24 88.5856L109.302 88.4607C109.302 88.3982 109.302 88.3357 109.177 88.3357C109.115 88.3357 109.052 88.3982 109.052 88.4607C109.052 88.5231 109.052 88.5856 108.99 88.5856C108.928 88.5856 108.74 88.9604 108.74 89.2103V89.2728C108.74 89.3352 108.74 89.3352 108.678 89.3352H108.553C108.553 89.3977 108.553 89.4602 108.49 89.4602C108.428 89.4602 108.428 89.4602 108.428 89.5226L108.303 89.8975L108.178 90.1473L108.303 90.2723L108.24 90.3348C108.178 90.3348 108.178 90.4597 108.178 90.5222C108.178 90.5846 108.178 90.5846 108.115 90.5846C108.053 90.5846 107.928 90.7096 107.866 90.897L107.678 91.2718C107.616 91.2718 107.616 91.2718 107.616 91.3343V91.3968L107.428 91.8965C107.241 92.3338 107.178 92.5212 107.178 92.6462L107.241 92.7711L107.303 92.8336L107.178 92.9585C107.116 93.021 107.053 93.0834 107.053 93.1459L107.178 94.0205L107.241 94.2079C107.303 94.2704 107.303 94.3953 107.303 94.5827C107.303 94.8326 107.366 94.8326 107.553 94.8326H107.866L108.115 94.9576ZM115.424 82.8383H115.299L115.237 82.7759V82.7134L115.424 82.8383ZM116.924 83.588L116.986 83.2756L117.111 83.2132V83.2756L116.986 83.5255L116.924 83.588ZM107.616 83.9628L107.741 83.9003C107.741 83.8379 107.741 83.7754 107.678 83.7754L107.616 83.9003V83.9628V83.9628ZM118.173 84.0253V83.9628C118.173 83.9003 118.173 83.9003 118.111 83.9003C118.048 83.9003 118.048 83.9003 118.048 83.9628L118.173 84.0253ZM117.049 86.0243C117.049 86.0243 117.174 85.9618 117.174 85.8994C117.174 85.8369 117.174 85.8369 117.111 85.8369C117.049 85.8369 116.986 85.8994 116.924 85.9618C116.924 86.0243 116.924 86.0243 116.986 86.0243H117.049V86.0243ZM117.986 87.0863L118.048 87.0238V86.8989C117.986 86.8989 117.923 86.9614 117.923 87.0238L117.986 87.0863ZM106.491 87.4611L106.554 87.3362L106.491 87.2737L106.366 87.3987C106.366 87.4611 106.429 87.4611 106.491 87.4611ZM109.99 87.4611L110.114 87.3362L110.052 87.2737L109.927 87.3987C109.927 87.4611 109.99 87.4611 109.99 87.4611ZM109.49 88.1483L109.615 88.0234C109.677 87.9609 109.74 87.8984 109.74 87.836C109.615 87.836 109.427 88.0234 109.427 88.0858L109.49 88.1483ZM115.549 88.0234C115.612 88.0234 115.674 87.9609 115.674 87.8984H115.612C115.549 87.9609 115.487 87.9609 115.487 88.0234H115.549ZM117.861 89.0854C117.986 89.0854 118.173 88.773 118.236 88.5856V88.3982L118.173 88.5231C118.111 88.6481 118.048 88.773 117.986 88.773C117.923 88.8355 117.861 88.8979 117.861 89.0229V89.0854V89.0854ZM121.609 88.8355L121.671 88.773V88.6481H121.609C121.609 88.6481 121.546 88.6481 121.546 88.7105C121.546 88.8355 121.546 88.8355 121.609 88.8355ZM109.177 88.9604C109.115 88.9604 109.115 88.8979 109.115 88.8355C109.115 88.8355 109.177 88.8355 109.177 88.773C109.24 88.773 109.24 88.773 109.24 88.8355L109.302 88.8979C109.302 88.9604 109.302 88.9604 109.177 88.9604V88.9604ZM117.548 89.6476L117.673 89.4602H117.611L117.548 89.5851V89.6476V89.6476ZM117.861 90.2098L118.111 89.7101C118.048 89.7101 118.048 89.7725 117.923 89.835L117.798 90.1473L117.861 90.2098ZM107.928 90.3348L108.053 90.2723C108.053 90.2098 107.99 90.2098 107.928 90.1473H107.803V90.2723L107.928 90.3348ZM117.798 90.4597L117.861 90.3348C117.798 90.2723 117.736 90.2098 117.673 90.2098H117.611L117.798 90.4597ZM112.238 90.7721C112.176 90.7721 112.176 90.7721 112.176 90.7096V90.6471C112.176 90.5846 112.238 90.5222 112.301 90.5222C112.363 90.5222 112.363 90.5222 112.363 90.5846C112.363 90.6471 112.301 90.7096 112.238 90.7721V90.7721ZM116.736 90.897L116.861 90.8345L116.986 90.5846C116.986 90.5846 116.986 90.5222 116.924 90.5222C116.861 90.5222 116.861 90.5846 116.861 90.5846V90.6471L116.736 90.897ZM118.173 91.0219C118.236 91.0219 118.298 90.9595 118.298 90.8345C118.298 90.7096 118.236 90.5846 118.173 90.5846H118.111C117.986 90.5846 117.861 90.6471 117.861 90.7721V90.8345L118.048 90.7721C118.111 90.7721 118.111 90.7721 118.111 90.8345V90.9595C118.111 91.0219 118.173 91.0219 118.173 91.0219V91.0219ZM107.553 90.9595C107.616 90.9595 107.678 90.897 107.678 90.8345V90.7096C107.678 90.7096 107.678 90.7721 107.616 90.7721C107.553 90.8345 107.491 90.897 107.491 90.9595H107.553V90.9595ZM117.423 91.3343L117.299 91.1469C117.299 91.0219 117.236 91.0219 117.236 91.0219H117.174C117.174 91.2093 117.299 91.3343 117.423 91.3343V91.3343ZM117.548 91.5217L117.673 91.4592L117.736 91.2093C117.736 91.1469 117.673 91.1469 117.673 91.1469L117.611 91.2718L117.548 91.5217ZM117.174 91.6466V91.5217L117.049 91.3343C116.986 91.3343 116.924 91.3343 116.924 91.3968C116.924 91.5842 117.111 91.6466 117.174 91.6466V91.6466ZM115.737 91.7091C115.799 91.7091 115.862 91.6466 115.862 91.5842L115.924 91.4592H115.862C115.799 91.4592 115.799 91.5217 115.737 91.5842L115.674 91.6466L115.737 91.7091ZM116.174 91.7716C116.237 91.7716 116.299 91.7091 116.361 91.6466L116.424 91.5217L116.174 91.7716ZM117.174 92.1464L117.361 91.8965L117.423 91.7716L117.361 91.7091L117.174 91.959L117.111 92.0839L117.174 92.1464ZM116.736 92.0215C116.861 92.0215 116.924 92.0215 116.924 91.959V91.8965C116.924 91.7716 116.924 91.7716 116.861 91.7716L116.736 91.834L116.549 91.959C116.549 92.0215 116.611 92.0215 116.736 92.0215V92.0215ZM111.614 91.959C111.551 91.959 111.551 91.959 111.551 91.8965L111.676 91.834C111.739 91.834 111.739 91.834 111.739 91.8965L111.614 91.959ZM116.611 92.4587L116.674 92.3963C116.736 92.3338 116.736 92.2713 116.736 92.2089H116.674C116.611 92.2089 116.611 92.2089 116.611 92.3338V92.4587ZM116.424 92.7086C116.486 92.7086 116.486 92.7086 116.486 92.6462L116.424 92.5212C116.361 92.5212 116.361 92.5212 116.361 92.5837C116.361 92.6462 116.361 92.7086 116.424 92.7086ZM117.111 92.7086C117.174 92.7086 117.174 92.6462 117.174 92.5837C117.174 92.5212 117.174 92.5212 117.111 92.5212L116.986 92.6462C116.986 92.7086 117.049 92.7086 117.111 92.7086ZM116.174 93.0834L116.237 92.9585L116.174 92.896C116.112 92.896 116.112 92.9585 116.112 92.9585C116.112 93.021 116.112 93.0834 116.174 93.0834ZM115.987 93.4583L116.049 93.3958C116.112 93.3333 116.174 93.2709 116.174 93.2084H116.112L115.987 93.3333V93.2084H115.924C115.862 93.2084 115.862 93.2709 115.862 93.3958L115.987 93.4583ZM116.486 93.5832C116.549 93.5832 116.549 93.5207 116.611 93.4583V93.3958C116.549 93.3958 116.486 93.4583 116.486 93.5207V93.5832ZM110.427 93.7706L110.302 93.6457C110.302 93.5832 110.302 93.5832 110.364 93.5832L110.489 93.6457C110.489 93.7081 110.489 93.7706 110.427 93.7706ZM114.175 96.207L114.362 96.1445L114.425 96.0195C114.425 96.0195 114.425 95.9571 114.362 95.9571C114.3 95.9571 114.175 96.0195 114.175 96.1445V96.207ZM131.042 99.268L130.979 99.2055L130.917 99.268L130.855 98.9556C130.855 98.8932 130.792 98.8307 130.667 98.8307H130.542L130.605 98.8932L130.667 99.0806V99.1431L130.48 99.2055C130.355 99.2055 130.23 99.1431 130.23 99.0806C130.23 99.0181 130.105 98.9556 129.918 98.8932C129.793 98.8307 129.605 98.7058 129.543 98.5808C129.418 98.4559 129.23 98.3934 128.856 98.3309C128.481 98.3309 128.293 98.206 128.106 98.0186C127.918 97.8937 127.856 97.7687 127.856 97.7062L127.544 97.4564C127.356 97.269 127.231 97.0815 127.231 97.0191C127.231 96.8941 127.231 96.8317 127.169 96.8317C127.106 96.8317 127.106 96.3319 127.106 95.8321C127.106 95.2699 127.106 94.5827 127.044 94.2704L126.981 93.2709C126.981 92.9585 126.981 92.7086 126.919 92.6462V92.5837C126.981 92.5837 127.044 92.3338 127.044 92.1464L126.919 91.6466L126.981 91.5842C127.044 91.5842 127.044 91.4592 127.044 91.2718V90.1473C127.044 89.8975 126.981 89.835 126.919 89.835L126.794 89.8975C126.794 89.835 126.794 89.835 126.919 89.7101C127.044 89.5851 127.106 89.3977 127.106 88.773C127.106 88.3982 127.106 88.1483 127.044 88.1483L126.919 88.2732C126.856 88.2732 126.794 88.1483 126.794 87.9609C126.794 87.7735 126.856 87.5861 126.919 87.5861C127.044 87.5236 127.044 87.3362 127.044 87.1488C127.044 86.9614 127.044 86.774 126.919 86.774H126.856L126.919 86.649C126.981 86.5241 127.044 86.3367 127.044 86.2117L127.106 85.712C127.106 85.2747 127.044 85.0873 126.981 85.0873L126.919 84.9623C126.919 84.8999 126.919 84.8999 126.981 84.8999C127.044 84.8999 127.106 84.7749 127.106 84.5875L127.169 83.9003C127.169 83.8379 127.169 83.8379 127.106 83.8379L126.981 83.9003L127.044 83.8379C127.106 83.7129 127.106 83.588 127.106 83.463C127.044 83.4006 127.044 82.7759 127.044 82.2136C126.981 81.6514 126.981 80.5269 126.981 79.7148V78.278C127.356 78.278 127.544 78.278 127.918 78.1531C128.168 78.1531 128.418 78.2155 128.543 78.278C128.731 78.403 128.98 78.4654 129.105 78.4654H129.293C129.293 78.5279 129.355 78.5279 129.355 78.5279H129.418C129.543 78.5279 129.605 78.5904 129.605 78.6528C129.605 78.7778 130.167 79.1526 130.355 79.1526L130.605 79.2151C130.605 79.2775 130.667 79.34 130.792 79.34C130.979 79.4025 131.042 79.4649 131.042 79.5899C131.042 79.6524 131.104 79.7773 131.229 79.8398L131.354 80.1521C131.354 80.2771 131.417 80.4645 131.542 80.6519C131.729 80.9018 131.729 81.1516 131.729 82.7134L131.792 84.65L131.854 84.7124C131.917 84.7124 131.979 84.5875 132.229 84.1502L132.604 83.4006C132.666 83.2132 132.854 82.9008 132.979 82.7759L133.041 82.5885V82.3386C133.041 81.9638 133.291 81.5265 133.666 81.4015C133.791 81.3391 133.791 81.2141 133.791 81.1516C133.728 81.0892 133.728 81.0267 133.666 81.0267H133.603C133.603 81.0267 133.541 81.0267 133.541 80.9642L133.666 80.9018C133.916 80.9018 134.165 80.7143 134.165 80.4645C134.165 80.2146 134.29 79.9647 134.353 79.9647C134.415 79.9647 134.54 79.9022 134.603 79.7773C134.603 79.6524 134.728 79.5274 134.79 79.5274C134.853 79.5274 134.853 79.4649 134.853 79.4649V79.4025L134.978 79.1526C135.04 79.0277 135.103 78.8402 135.165 78.8402C135.165 78.7778 135.227 78.7778 135.227 78.7778C135.29 78.7778 135.415 78.7153 135.477 78.5904L135.727 78.4654C135.852 78.4654 135.977 78.4654 135.977 78.3405C136.102 78.2155 137.102 77.9657 137.976 77.9657C138.601 77.9657 139.663 78.0906 139.663 78.2155C139.663 78.2155 139.725 78.278 139.85 78.278C139.975 78.278 140.163 78.3405 140.288 78.403C140.787 78.7153 141.037 78.8402 141.162 78.8402H141.35V78.9652C141.35 79.0277 141.412 79.0901 141.662 79.0901C142.037 79.0901 143.099 79.7773 143.099 79.9647L143.161 80.0896H143.224C143.349 80.0896 143.474 80.2146 143.536 80.3395L144.036 81.0267C144.286 81.3391 144.348 81.5889 144.348 81.7139L144.286 81.8388H144.411C144.473 81.8388 144.473 81.8388 144.473 81.9013V82.0887C144.473 82.1512 144.473 82.1512 144.536 82.1512H144.66C144.723 82.1512 144.785 82.2136 144.848 82.3386C144.973 82.4635 144.973 82.526 144.973 82.6509L144.91 82.8383L144.848 82.9633C144.848 83.0257 144.848 83.0257 144.91 83.0257C144.973 83.0257 145.035 83.1507 145.035 83.3381C145.035 83.463 145.098 83.7754 145.223 83.9003L145.348 84.1502L145.285 84.3376L145.41 84.7749L145.348 84.8999C145.285 84.8999 145.285 84.9623 145.285 85.0248L145.348 85.1497C145.41 85.2747 145.41 85.4621 145.41 85.6495C145.41 85.8994 145.41 86.1493 145.285 86.2742V86.3367L145.348 86.2742L145.41 87.0238C145.41 87.6485 145.348 88.3357 145.285 88.3982C145.223 88.4607 145.223 88.5856 145.223 88.7105C145.223 88.773 145.223 88.8355 145.285 88.8355H145.473L145.41 89.0229L145.285 89.0854V88.9604L145.223 89.0229L145.348 89.2728L145.285 89.3977C145.223 89.4602 145.223 89.5851 145.223 89.6476V89.7725H145.348V89.835C145.348 89.8975 145.348 89.9599 145.285 90.0224C145.223 90.0224 145.16 90.1474 145.16 90.2723L145.098 90.3972L145.16 90.4597C145.223 90.4597 145.223 90.5846 145.223 90.7096C145.223 91.0219 145.16 91.3968 145.098 91.5217L145.035 91.7091L145.223 92.1464L145.098 92.3963H145.035L145.098 92.4587L145.223 92.7711L145.035 93.1459L145.098 93.3333L145.16 94.0205C145.16 94.8951 145.035 96.3319 144.91 96.3944C144.848 96.3944 144.848 96.4568 144.848 96.4568V96.5193L144.723 96.6442V96.5193L144.66 96.4568L144.286 96.6442L143.911 96.5193L143.848 96.5818L143.911 96.6442C143.973 96.7067 143.973 96.8317 143.973 96.8317H143.911V96.7692H143.786L143.723 96.8941V96.9566H143.661C143.536 96.9566 143.536 96.8941 143.536 96.8317C143.536 96.7692 143.411 96.7067 143.349 96.7067L142.786 96.6442L142.849 96.7067C142.849 96.8317 142.724 97.0815 142.536 97.0815C142.474 97.0815 142.474 97.0191 142.474 96.9566L142.599 96.7067L142.661 96.6442L142.162 96.7067C142.099 96.7067 142.037 96.6442 142.037 96.5193V96.3944L141.974 96.4568C141.912 96.5193 141.787 96.5193 141.662 96.5193C141.412 96.5193 141.1 96.4568 141.037 96.2694C140.975 96.1445 140.85 95.9571 140.662 95.7697C140.475 95.5823 140.288 95.3324 140.288 95.2699V95.2074L140.225 95.0825C140.163 95.02 140.163 94.8326 140.163 94.3329L140.225 91.7716C140.288 90.6471 140.412 89.7101 140.475 89.6476L140.537 89.5226L140.412 89.0854C140.412 88.8355 140.537 88.5856 140.6 88.5856C140.662 88.5231 140.725 88.4607 140.725 88.3982C140.725 88.3357 140.725 88.3357 140.662 88.3357H140.6C140.537 88.3357 140.537 88.2732 140.537 88.2108L140.6 88.0858H140.537L140.412 88.0234C140.412 87.9609 140.475 87.836 140.6 87.7735L140.662 87.5236V86.9614L140.787 84.0253C140.787 83.5255 140.725 83.2756 140.6 82.8383C140.412 82.0262 140.225 81.6514 140.038 81.5889H139.913C139.538 81.5889 138.788 82.2136 138.601 82.6509C138.601 82.8383 138.538 82.9633 138.476 82.9633C138.413 82.9633 138.351 83.0257 138.351 83.1507C138.351 83.2132 138.289 83.3381 138.226 83.3381L138.164 83.463V83.5255C138.164 83.6504 138.101 83.7754 138.039 83.8379L137.851 84.0877C137.851 84.0253 137.851 84.0253 137.789 84.0253C137.726 84.0253 137.601 84.2127 137.414 84.5875L137.164 85.1497V85.2747C137.164 85.3996 137.102 85.4621 136.977 85.5246C136.852 85.587 136.789 85.712 136.789 85.7744V85.8369L136.977 85.587V85.712C136.914 85.7744 136.852 85.8369 136.789 85.8369C136.727 85.8369 136.602 86.0243 136.477 86.3367C136.289 86.649 136.165 86.774 136.102 86.774L135.977 86.7115V86.8364C135.977 87.0863 135.79 87.4611 135.665 87.4611H135.602L135.665 87.5236L135.415 88.2732L135.04 89.0229C135.04 89.0854 135.04 89.0854 134.978 89.0854C134.915 89.0854 134.79 89.3352 134.728 89.6476C134.54 90.1473 134.478 90.2723 134.228 90.7096L134.041 91.2718C133.978 91.4592 133.916 91.6466 133.853 91.6466L133.791 91.8965C133.791 91.959 133.728 92.0839 133.666 92.0839C133.353 92.0839 133.291 92.1464 133.291 92.2713C133.291 92.3963 133.291 92.4587 133.353 92.4587L133.541 92.3338L133.666 92.2713V92.3963L133.603 92.5837C133.541 92.5837 133.416 92.9585 133.291 93.3958L132.979 94.3953C132.916 94.5203 132.791 95.145 132.791 95.3948L132.541 96.9566L132.666 97.6438L132.541 98.0811C132.416 98.4559 132.416 98.3934 132.416 98.5184C132.416 98.5808 132.229 98.6433 132.041 98.6433C131.542 98.6433 131.104 98.8932 131.104 99.0181V99.1431C131.104 99.2055 131.104 99.268 131.042 99.268V99.268ZM134.353 79.5274C134.353 79.5274 134.415 79.4025 134.54 79.34L134.728 79.0901C134.728 79.1526 134.665 79.2151 134.603 79.2775C134.54 79.4025 134.415 79.4649 134.353 79.5274V79.5274ZM134.353 79.8398C134.29 79.8398 134.29 79.8398 134.29 79.7148V79.6524H134.353V79.8398V79.8398ZM136.352 83.3381L136.414 83.1507H136.352C136.289 83.1507 136.289 83.2756 136.289 83.2756C136.289 83.3381 136.289 83.3381 136.352 83.3381V83.3381ZM135.852 84.0877L135.977 83.9003H135.852L135.727 84.0253C135.727 84.0877 135.79 84.0877 135.852 84.0877V84.0877ZM137.664 84.4626L137.601 84.4001V84.3376C137.601 84.2751 137.664 84.2752 137.726 84.2752V84.3376L137.664 84.4626ZM145.035 84.2752L145.16 84.1502C145.16 84.0877 145.16 84.0877 145.098 84.0877L144.973 84.1502L145.035 84.2752ZM145.098 86.0243L145.16 85.8994L145.098 85.7744L145.035 85.8994L145.098 86.0243ZM135.165 88.2108L135.227 88.1483L135.165 88.0858C135.165 88.0234 135.165 87.9609 135.227 87.8984C135.29 87.836 135.352 87.7735 135.352 87.711C135.29 87.711 135.227 87.7735 135.165 87.836L134.978 88.0858L135.165 88.2108ZM134.478 89.6476L134.415 89.5226L134.29 89.5851C134.29 89.6476 134.353 89.6476 134.415 89.6476H134.478ZM134.165 90.2723C134.165 90.2098 134.165 90.1473 134.103 90.1473L133.978 90.0849V90.1473C133.978 90.2098 134.041 90.2723 134.103 90.2723H134.165ZM144.785 91.8965V91.5217C144.785 91.2718 144.785 91.1469 144.723 91.1469L144.66 91.5217C144.66 91.7716 144.723 91.8965 144.785 91.8965ZM145.035 92.2713V92.0839C144.973 92.0839 144.973 92.1464 144.973 92.1464V92.2713H145.035ZM142.974 97.0191C142.911 97.0191 142.849 97.0191 142.849 96.9566L143.036 96.8317L143.161 96.8941C143.161 96.9566 143.036 97.0191 142.974 97.0191ZM165.838 101.704L165.713 101.517C165.713 101.392 165.65 101.267 165.588 101.267L165.338 101.142L165.151 100.955C165.088 100.955 165.088 101.017 165.088 101.08L165.151 101.392C164.901 101.142 164.838 101.017 164.776 101.017L164.526 101.142C164.464 101.142 164.464 101.08 164.401 100.955C164.339 100.83 164.276 100.767 164.214 100.767H164.151C163.901 100.767 163.277 100.392 163.277 100.205C163.277 100.143 163.214 100.018 163.089 99.9552C162.902 99.8302 162.777 99.3929 162.777 99.0806V98.9556C162.777 98.8307 162.777 98.7058 162.714 98.7058L162.652 98.206L162.714 97.7062L162.652 97.0191C162.652 96.8941 162.714 96.8317 162.777 96.7692L162.902 96.6442L162.777 96.7067C162.652 96.7067 162.589 96.7067 162.589 96.5818C162.589 96.5193 162.652 96.5193 162.714 96.5193L162.777 96.4568L162.589 96.1445L162.714 96.082C162.777 96.082 162.777 96.0195 162.777 95.9571V95.8946C162.777 95.7697 162.777 95.7072 162.839 95.7072L162.964 95.7697C163.027 95.7697 163.152 95.7697 163.152 95.7072C163.152 95.6447 163.089 95.6447 163.027 95.6447L162.964 95.5823L163.027 95.5198L162.964 95.2699L162.902 95.0825L163.027 94.9576L163.089 94.8326V94.7077L163.027 94.6452L162.964 94.7701C162.902 94.8326 162.839 94.9576 162.777 94.9576L162.652 95.02V94.9576L162.839 94.6452C162.964 94.3953 163.089 94.1454 163.089 93.8956C163.089 93.7706 163.027 93.7081 162.964 93.7081H162.902C162.714 93.7081 162.589 93.8956 162.589 93.958V94.0205C162.589 94.1454 162.527 94.1454 162.464 94.1454H162.402C162.34 94.1454 162.277 94.2704 162.215 94.4578C162.152 94.7077 161.965 95.0825 161.715 95.3324C161.527 95.5198 161.402 95.7697 161.402 95.8321L161.215 95.9571L161.278 96.082L161.34 96.1445H161.215C161.09 96.1445 160.903 96.3944 160.903 96.5193L160.965 96.6442C160.965 96.7067 160.965 96.7067 160.84 96.7067H160.715C160.715 96.7692 160.715 96.7692 160.653 96.7692H160.465C160.34 96.7692 160.153 96.8941 160.153 97.0191V97.144C160.153 97.2065 160.091 97.2065 160.028 97.269C159.966 97.3314 159.903 97.3939 159.903 97.4564L159.778 97.5188C159.653 97.5188 159.653 97.5813 159.653 97.7062L159.716 97.8312L159.591 97.7687C159.591 97.7062 159.528 97.7062 159.466 97.7062C159.403 97.8937 159.341 98.0186 159.216 98.0186L158.966 97.8937L158.904 97.9561C158.904 98.0811 158.841 98.1435 158.779 98.1435C158.654 98.1435 158.591 98.1435 158.529 98.2685C158.529 98.3309 158.404 98.3934 158.341 98.3934C158.217 98.3934 158.154 98.3934 158.154 98.4559L158.092 98.5184C158.029 98.5184 157.967 98.4559 157.904 98.3934C157.842 98.2685 157.842 98.2685 157.779 98.2685C157.717 98.2685 157.717 98.2685 157.592 98.3934L157.404 98.4559H157.342C157.279 98.3934 157.03 98.3309 156.78 98.3309C156.53 98.3309 156.217 98.206 156.093 98.1435C155.78 97.8937 154.468 97.269 154.156 97.2065C153.844 97.144 153.156 96.5193 152.719 95.8946L152.157 95.145C152.032 95.02 151.782 94.7077 151.657 94.4578C151.47 94.2079 151.22 93.8331 151.032 93.6457C150.845 93.3958 150.72 93.2084 150.72 93.1459C150.72 93.0834 150.72 93.0834 150.783 93.0834C150.845 93.0834 150.845 93.021 150.845 92.896V92.8336H150.72C150.595 92.8336 150.47 92.6462 150.47 92.3963V92.2089L150.533 92.3338C150.595 92.4587 150.595 92.5212 150.658 92.5212L150.595 91.959V91.3343C150.595 91.2718 150.595 91.2718 150.533 91.2718H150.283C150.283 91.2093 150.345 91.1469 150.408 91.0844C150.533 91.0844 150.595 91.0844 150.595 91.0219L150.47 90.7721C150.408 90.6471 150.408 90.5222 150.408 90.3972C150.408 90.2723 150.408 90.2098 150.533 90.2098C150.595 90.2098 150.595 90.2723 150.595 90.3348C150.595 90.3972 150.658 90.3972 150.658 90.3972V90.3348L150.533 89.9599L150.907 88.8355L150.845 88.773L150.907 87.7735C150.97 87.6485 151.032 87.4611 151.157 87.4611C151.282 87.3987 151.345 87.2737 151.345 87.1488C151.345 87.0863 151.345 87.0863 151.282 87.0863C151.22 87.0863 151.157 87.0238 151.157 86.9614C151.157 86.8364 151.282 86.5865 151.345 86.5241L151.47 86.3991L151.345 86.2742L151.282 86.1493V86.0868C151.282 86.0243 151.282 85.9618 151.22 85.9618C151.157 85.9618 151.157 85.8994 151.157 85.8369L151.22 85.7744L151.282 85.8369C151.282 85.8369 151.47 85.712 151.595 85.5246C151.72 85.3996 151.845 85.2747 151.845 85.1497V85.0873C151.845 84.9623 151.845 84.8999 151.907 84.8374L151.969 84.4626C151.969 84.2752 151.969 84.2127 152.032 84.2127C152.094 84.2127 152.157 84.2127 152.157 84.1502C152.157 84.0877 152.157 83.9003 152.219 83.7754C152.282 83.6504 152.282 83.463 152.282 83.4006V83.3381H152.344C152.407 83.3381 152.532 83.3381 152.532 83.2756C152.532 83.2132 152.532 83.2132 152.469 83.2132C152.407 83.2132 152.344 83.1507 152.344 83.0882C152.344 83.0257 152.407 82.9008 152.532 82.8383C152.594 82.7759 152.657 82.7759 152.657 82.7134V82.5885C152.657 82.4635 152.844 82.2761 153.031 82.2136L153.219 82.1512L153.156 82.0262L153.031 81.9013H153.281L153.219 81.7763L153.156 81.5889C153.156 81.4015 153.344 81.2141 153.531 81.2141C153.594 81.2141 153.719 81.1516 153.719 81.0892L153.781 81.0267L153.594 81.0892L153.531 80.9642L153.594 80.7768L153.781 80.5894L153.906 80.6519L153.969 80.5269C154.031 80.402 154.031 80.2771 154.031 80.2146V80.1521C154.031 80.0896 154.156 79.9022 154.281 79.7773C154.406 79.6524 154.531 79.4025 154.531 79.34V79.2775L154.593 79.0901L154.656 78.9652V79.0901C154.656 79.1526 154.718 79.1526 154.781 79.1526H154.843C154.906 79.1526 154.906 79.1526 154.906 79.2151C154.906 79.2151 154.968 79.1526 154.968 79.0277L155.031 78.8402L154.906 78.6528L154.968 78.5279H155.031C155.031 78.5904 155.031 78.6528 155.093 78.6528H155.218C155.343 78.6528 155.405 78.5904 155.53 78.3405C155.593 77.9657 155.78 77.7783 156.28 77.4034L156.842 76.9661L157.404 76.5913C157.654 76.4664 157.967 76.3414 158.029 76.2165L158.529 76.0291C158.716 76.0291 158.966 76.0291 159.029 75.9666L159.466 75.9041C159.653 75.8417 159.841 75.7792 159.841 75.7167H159.966L161.153 75.9041C161.34 75.9041 161.59 75.9666 161.652 76.0291L162.714 76.4039L163.526 76.7787C163.589 76.7787 163.651 76.5288 163.714 76.154C163.714 75.7167 163.776 75.4669 163.839 75.4669C163.964 75.4044 163.964 75.3419 163.964 75.3419V75.2794H163.839C163.776 75.2794 163.776 75.217 163.776 75.1545L163.839 74.9046L163.964 74.7172L163.901 74.6547C163.839 74.6547 163.776 74.5298 163.776 74.3424C163.776 74.155 163.839 73.9051 163.964 73.8426C164.089 73.7177 164.151 73.6552 164.151 73.5927L164.026 73.6552L163.964 73.7177L163.901 73.6552L163.964 73.1555L164.026 71.5312C164.026 70.969 164.089 70.4692 164.151 70.3443L164.214 69.4697C164.276 68.6576 164.276 68.4077 164.339 68.3452C164.401 68.2203 164.464 67.4707 164.464 66.6586C164.464 66.2837 164.464 66.0339 164.526 65.9714C164.588 65.9714 164.588 65.7215 164.588 65.4716C164.588 65.0343 164.526 64.5346 164.464 64.5346V64.0348C164.401 64.0348 164.339 63.7849 164.339 63.4726C164.339 62.9728 164.339 62.9103 164.526 62.7229L164.713 62.598L164.776 62.6605C164.776 62.7229 164.901 62.7229 165.213 62.7229L165.65 62.6605L165.963 62.7854C166.213 62.9728 167.587 63.5975 167.712 63.5975C167.774 63.5975 168.024 63.7849 168.212 63.9723C168.462 64.1597 168.649 64.3472 168.711 64.3472C168.774 64.3472 168.774 64.4096 168.774 64.4721C168.774 64.4721 168.836 64.6595 168.961 64.7844C169.024 64.9094 169.086 65.0343 169.086 65.2842V65.659C169.086 66.0339 169.086 66.3462 169.149 66.3462H169.211L169.149 66.4087C169.086 66.4711 169.086 66.5961 169.086 66.721C169.086 66.846 169.086 66.9084 169.149 66.9084V67.0334L168.961 68.0954L169.024 68.2203C169.086 68.2203 169.149 68.3452 169.149 68.4702C169.149 68.6576 169.149 68.7201 169.086 68.7201L168.961 68.6576C168.836 68.6576 168.774 68.6576 168.774 68.7201C168.774 68.7825 168.836 68.7825 168.899 68.7825C168.961 68.7825 169.024 68.845 169.024 69.0324L168.899 69.4697V69.9695C168.899 70.2818 168.899 70.3443 168.774 70.3443L168.587 70.4068C168.587 70.4692 168.649 70.5317 168.711 70.5317C168.774 70.5317 168.899 70.5942 168.899 70.6566V70.7816C168.836 70.7816 168.836 70.9065 168.836 71.0939C168.774 71.7811 168.774 72.0935 168.649 72.0935C168.587 72.0935 168.587 72.031 168.587 72.031V71.9685C168.587 71.9061 168.587 71.9061 168.524 71.9061C168.462 71.9061 168.462 71.9061 168.462 71.9685C168.462 72.031 168.524 72.0935 168.587 72.1559C168.711 72.1559 168.774 72.2184 168.774 72.3433C168.774 72.4058 168.774 72.4683 168.711 72.4683C168.587 72.4683 168.524 72.7806 168.524 73.1555V73.4053C168.524 73.7802 168.524 73.9051 168.337 73.9676C168.274 74.03 168.212 74.0925 168.212 74.155H168.337V74.2799C168.274 74.3424 168.212 74.5298 168.212 74.6547L168.149 74.7797L168.212 74.8421L168.337 74.7172C168.399 74.7172 168.399 74.7797 168.399 74.9671V75.092C168.399 75.217 168.399 75.3419 168.337 75.4044L168.274 75.4669H168.337C168.337 75.4669 168.399 75.4669 168.399 75.5293V75.5918H168.337C168.274 75.5918 167.899 75.9666 167.899 76.0291H168.087C168.212 76.0291 168.274 76.0291 168.274 76.154L168.212 76.279C168.149 76.279 168.087 76.4039 168.087 76.5913L168.149 76.7787C168.149 76.8412 168.274 76.8412 168.399 76.8412C168.524 76.8412 168.587 76.9037 168.587 77.0286C168.524 77.0911 168.524 77.1535 168.524 77.216C168.524 77.216 168.462 77.216 168.462 77.0911L168.399 77.0286L168.274 77.1535C168.274 77.2785 168.212 77.4034 168.087 77.4034H168.024L168.149 77.4659C168.274 77.5908 168.274 77.7158 168.274 78.2155V78.9652C168.274 79.0901 168.212 79.1526 168.149 79.1526L168.087 79.0901V79.2151C168.149 79.2775 168.274 79.34 168.399 79.34L168.711 79.4025L168.774 79.4649C168.774 79.6524 168.524 79.8398 168.399 79.9022C168.274 79.9022 168.212 80.0272 168.212 80.0896C168.212 80.1521 168.149 80.2146 168.087 80.2146L167.962 80.3395C167.962 80.402 167.962 80.4645 168.024 80.4645H168.087C168.149 80.4645 168.149 80.4645 168.149 80.5269V80.6519C168.149 80.7768 168.149 80.9018 168.212 80.9018H168.274L168.212 80.9642C168.087 81.0892 167.837 81.7763 167.837 82.2761L167.712 82.7759L167.587 82.9633L167.65 83.0257L167.774 82.9633L167.65 83.5255L167.712 83.8379C167.712 83.9003 167.712 83.9628 167.774 83.9628L167.837 84.0253L167.774 84.1502C167.712 84.2127 167.65 84.4001 167.65 84.525V84.65L167.4 84.525V84.5875L167.525 84.8374C167.649 84.8999 167.65 85.0248 167.65 85.2747C167.587 85.4621 167.587 85.7744 167.587 85.8994C167.587 86.5241 167.462 87.0863 167.337 87.0863H167.275L167.4 87.3362L167.337 87.3987L167.4 87.5236L167.462 88.2108L167.4 90.3972L167.337 90.7721L167.275 90.8345L167.4 91.0219L167.275 91.4592H167.212V91.6466C167.275 91.7091 167.337 91.959 167.337 92.1464C167.337 92.3338 167.275 92.5837 167.212 92.7086C167.212 92.7711 167.275 92.8336 167.337 92.8336C167.462 92.8336 167.525 92.896 167.525 92.9585L167.462 93.0834H167.4C167.4 93.0834 167.337 93.2709 167.337 93.5207C167.337 93.8331 167.275 94.083 167.212 94.083L167.15 94.1454H167.275L167.4 94.2079L167.337 94.3953C167.275 94.4578 167.275 94.5203 167.275 94.5827L167.337 94.8326L167.4 95.02L167.337 95.145L167.275 95.7072L167.337 96.2694L167.275 96.5818L167.212 96.9566C167.275 97.0191 167.275 97.144 167.337 98.3309L167.462 99.2055C167.525 99.268 167.525 99.3305 167.525 99.4554L167.462 99.5803L167.587 99.8302C167.65 99.8927 167.65 100.08 167.65 100.143L167.712 100.517L167.837 100.83C167.837 100.955 167.712 101.017 167.587 101.08C167.275 101.205 167.087 101.33 167.087 101.454L167.025 101.579L166.588 101.392L166.275 101.33L166.15 101.392C166.15 101.454 166.025 101.579 165.963 101.642L165.838 101.704ZM164.651 66.721C164.713 66.721 164.776 66.721 164.776 66.6586C164.776 66.5961 164.713 66.5961 164.713 66.5961C164.713 66.5961 164.651 66.5961 164.651 66.6586L164.588 66.721H164.651ZM164.526 69.5947L164.588 69.4697L164.526 69.4072C164.464 69.4072 164.401 69.4697 164.401 69.5322L164.464 69.5947H164.526ZM164.526 70.9065C164.588 70.9065 164.588 70.8441 164.588 70.7816L164.526 70.7191V70.9065V70.9065ZM164.276 71.6562C164.339 71.6562 164.464 71.5312 164.526 71.4063L164.588 71.2189L164.526 71.0939H164.401V71.2189C164.401 71.3438 164.401 71.4688 164.339 71.4688L164.214 71.5312L164.276 71.6562ZM164.339 72.2184L164.401 72.0935V71.9061H164.339C164.276 71.9061 164.276 71.9685 164.276 72.031V72.1559L164.339 72.2184ZM164.276 72.9056C164.276 72.9056 164.339 72.8431 164.339 72.7182V72.4683C164.276 72.4683 164.214 72.5932 164.214 72.7182C164.214 72.8431 164.276 72.9056 164.276 72.9056ZM163.964 74.2174L164.151 73.9676L164.026 74.03C163.964 74.0925 163.901 74.155 163.901 74.2174H163.964ZM164.089 76.0916C164.214 76.0916 164.214 76.0291 164.214 75.9666L164.089 75.8417C164.026 75.8417 163.964 75.9041 163.964 75.9666C163.964 76.0291 164.026 76.0916 164.089 76.0916ZM163.964 76.9661C164.026 76.9661 164.089 76.9037 164.089 76.8412L164.151 76.7787H164.089C164.026 76.7787 163.964 76.7163 163.964 76.5913C163.964 76.5288 163.964 76.4039 163.901 76.4039C163.839 76.4039 163.776 76.4039 163.776 76.5288L163.839 76.7787L163.964 76.9661ZM168.087 78.0906C168.149 78.0906 168.212 78.0281 168.212 77.9657C168.212 77.9032 168.149 77.9032 168.149 77.9032C168.149 77.9032 168.087 77.9032 168.087 77.9657L168.024 78.0281L168.087 78.0906ZM154.718 79.5274C154.781 79.5274 154.843 79.4649 154.843 79.4025C154.843 79.34 154.843 79.34 154.781 79.34L154.656 79.4025C154.656 79.4649 154.656 79.5274 154.718 79.5274ZM155.468 95.02C155.53 95.02 155.718 94.9576 155.968 94.7701C156.467 94.5203 157.404 93.6457 157.404 93.4583C157.404 93.4583 157.529 93.2084 157.779 93.0834C158.092 92.7711 158.279 92.4587 158.466 92.0215L159.029 90.897C159.091 90.772 159.216 90.6471 159.216 90.5222C159.216 90.4597 159.216 90.3972 159.341 90.3972C159.403 90.3348 159.466 90.2723 159.466 90.1473C159.466 90.0849 159.528 89.835 159.653 89.6476L159.778 89.3352V89.2103C159.778 89.1478 159.841 89.0229 159.966 88.8979C160.216 88.5856 160.465 88.2108 160.465 87.9609L160.403 87.711C160.403 87.5861 160.403 87.5236 160.465 87.5236L160.59 87.5861L160.653 87.6485V87.5236C160.653 87.4611 160.715 87.2737 160.778 87.2112C160.84 87.0863 160.903 86.9614 160.903 86.8364C160.903 86.7115 161.028 86.5241 161.153 86.3991L161.278 86.0868L161.34 85.712L161.59 85.2122C161.652 85.1497 161.715 84.8374 161.84 84.5875C161.965 84.4001 162.027 84.0877 162.09 83.9628V83.7129C162.09 83.7129 162.152 83.7129 162.152 83.6504L162.464 82.8383L162.777 82.5885C162.777 82.526 162.777 82.526 162.714 82.526L162.652 82.5885V82.526C162.652 82.4635 162.652 82.3386 162.777 82.1512L162.839 81.9013H162.777L162.839 81.8388C162.902 81.7763 162.964 81.6514 162.964 81.5265L163.089 81.2141C163.214 81.0267 163.214 80.9018 163.214 80.7768C163.214 80.5894 163.214 80.5269 163.089 80.5269C163.027 80.5269 162.964 80.4645 162.902 80.0272C162.839 79.5274 162.839 79.4025 162.589 79.34C162.527 79.34 162.402 79.34 162.277 79.4025C162.027 79.4025 161.777 79.4649 161.777 79.5274L161.715 79.5899L161.527 79.4649L161.402 79.6524C161.34 79.7773 161.215 79.9022 161.09 79.9647C160.028 80.5269 159.716 80.6519 159.716 80.7143C159.716 80.7768 159.653 80.7768 159.591 80.7768C159.528 80.7768 159.466 80.7768 159.403 80.7143C159.341 80.7143 159.154 80.7768 159.029 80.9642L158.779 81.2141L159.029 81.1516C159.029 81.2141 158.904 81.4015 158.654 81.6514C158.404 81.9638 158.092 82.2761 158.092 82.3386C157.842 82.7759 157.654 83.2132 157.529 83.2132C157.529 83.2132 157.467 83.2132 157.467 83.2756C157.467 83.3381 157.404 83.3381 157.404 83.3381H157.342C157.279 83.3381 157.279 83.463 157.279 83.588C157.279 83.6504 157.092 83.9003 156.967 83.9003L156.905 84.0253V84.0877L157.03 83.9628C157.092 83.9628 157.092 84.0253 157.092 84.0877V84.1502L157.03 84.2752C156.842 84.2752 156.53 84.65 156.53 84.8374C156.467 84.9623 156.467 85.0248 156.405 85.0248C156.342 85.0248 156.217 85.2747 156.155 85.5246V85.712C156.155 85.7744 156.155 85.8369 156.217 85.8369V85.712L156.28 85.7744L156.405 85.8369L156.28 85.9618C156.155 86.0243 156.155 86.0868 156.155 86.1493V86.2117C156.155 86.3367 155.905 87.0238 155.843 87.0238L155.78 86.8989L155.843 86.8364L155.905 86.7115H155.78C155.655 86.774 155.593 86.9614 155.593 87.0863L155.53 87.3362C155.468 87.3362 155.405 87.3987 155.405 87.4611C155.405 87.5861 155.343 87.6485 155.343 87.6485L155.28 87.711L155.405 87.7735C155.468 87.7735 155.468 87.7735 155.468 87.711L155.593 87.4611C155.593 87.4611 155.718 87.3987 155.78 87.2737L155.655 87.8984C155.53 88.3982 155.343 88.5856 155.093 88.5856C155.031 88.5856 154.968 88.6481 154.968 88.773V89.3352C154.906 89.5851 154.843 89.7725 154.781 89.835C154.718 89.8975 154.718 90.0224 154.718 90.0849C154.718 90.2098 154.718 90.3348 154.843 90.3348C154.906 90.3348 154.906 90.2098 154.906 90.0849V89.9599L154.843 89.8975H154.906C154.968 89.8975 154.968 89.835 154.968 89.7725L155.218 89.0854C155.218 88.9604 155.28 88.8979 155.28 88.8979L154.906 91.6466C154.906 91.8965 154.843 92.0215 154.843 92.0215C154.781 92.0215 154.781 92.0839 154.781 92.1464C154.781 92.2713 154.906 93.2709 154.906 93.7081C154.906 93.8331 154.906 93.8956 154.968 93.8956C155.031 93.8956 155.031 93.958 155.031 94.083C155.093 94.5203 155.218 94.7701 155.405 94.7701C155.53 94.7701 155.593 94.7701 155.593 94.8326L155.468 95.02ZM158.341 81.7763L158.404 81.6514V81.5889L158.279 81.6514C158.279 81.7139 158.279 81.7763 158.341 81.7763ZM162.902 82.3386L162.964 82.2761L163.027 82.1512L162.902 82.2136V82.3386ZM156.53 82.526C156.592 82.526 156.655 82.401 156.655 82.3386H156.717L156.655 82.2761L156.592 82.3386C156.53 82.3386 156.467 82.401 156.467 82.4635L156.53 82.526ZM162.589 83.4006C162.652 83.4006 162.714 83.3381 162.714 83.2756L162.589 83.2132L162.527 83.2756L162.589 83.4006ZM161.777 85.1497L161.84 85.0873C161.902 85.0873 161.902 84.9623 161.902 84.8999H161.84L161.777 85.1497ZM156.405 85.4621C156.342 85.4621 156.342 85.4621 156.342 85.3996L156.467 85.1497C156.53 85.1497 156.53 85.2747 156.53 85.3371C156.53 85.3996 156.467 85.4621 156.405 85.4621ZM161.527 86.0868C161.59 86.0868 161.59 86.0868 161.59 86.0243C161.59 85.9618 161.527 85.9618 161.527 85.9618H161.465V86.0243C161.465 86.0868 161.527 86.0868 161.527 86.0868ZM155.905 86.2742L156.03 86.2117C156.03 86.1493 155.968 86.0868 155.905 86.0868L155.843 86.2117L155.905 86.2742ZM155.28 88.3357L155.405 88.2108L155.53 87.9609H155.343L155.155 88.0858L155.28 88.3357ZM153.906 88.2108L153.969 88.0858C153.969 88.0234 153.969 88.0234 153.906 88.0234C153.844 88.0858 153.781 88.1483 153.781 88.2108H153.906V88.2108ZM154.343 88.5231L154.406 88.3982L154.343 88.2732L154.281 88.3982L154.343 88.5231ZM167.212 88.7105L167.337 88.6481L167.4 88.5231L167.337 88.4607C167.337 88.3982 167.337 88.3982 167.275 88.3982L167.15 88.5856L167.212 88.7105ZM167.087 89.3977L167.025 89.2728L166.9 89.2103V89.2728C166.9 89.3352 166.962 89.3977 167.025 89.3977H167.087ZM166.588 89.9599C166.588 89.9599 166.65 89.8975 166.65 89.7725V89.6476C166.588 89.6476 166.588 89.6476 166.588 89.7101L166.525 89.8975C166.525 89.9599 166.525 89.9599 166.588 89.9599ZM154.718 91.0844C154.781 91.0844 154.843 91.0219 154.843 90.9595L154.906 90.7721L154.781 90.8345L154.656 91.0844H154.718ZM154.468 92.5212C154.531 92.5212 154.531 92.4587 154.531 92.3963L154.656 91.8965L154.781 91.6466L154.718 91.5842C154.593 91.5842 154.531 91.7091 154.406 92.2089C154.406 92.3963 154.406 92.5212 154.468 92.5212V92.5212ZM162.34 92.1464C162.402 92.1464 162.464 92.0215 162.527 91.834L162.589 91.7091C162.589 91.7091 162.527 91.7091 162.464 91.834L162.34 92.0839V92.1464ZM162.777 93.021C162.902 92.9585 162.964 92.896 162.964 92.8336L163.027 92.7086C162.964 92.7086 162.902 92.7711 162.839 92.896L162.714 93.021H162.777ZM164.901 93.3958L165.026 93.3333C165.026 93.2709 165.026 93.2084 164.963 93.2084L164.901 93.3333V93.3958ZM165.775 93.3958C165.838 93.3958 165.9 93.3958 165.9 93.3333L165.775 93.2709L165.65 93.3333L165.775 93.3958ZM162.402 93.8956L162.464 93.8331L162.527 93.7081H162.464L162.402 93.8956ZM160.528 95.7072C160.59 95.7072 160.653 95.6447 160.653 95.5823C160.653 95.5198 160.715 95.4573 160.778 95.4573L160.84 95.3948H160.778L160.528 95.5198L160.465 95.6447L160.528 95.7072ZM160.34 95.9571L160.403 95.7697L160.34 95.7072L160.216 95.7697L160.34 95.9571ZM166.9 97.0815V96.7692C166.837 96.7692 166.837 96.7067 166.837 96.7067V97.0815H166.9ZM158.154 98.0186L158.529 97.8312H158.591C158.654 97.8312 158.654 97.8312 158.654 97.7062V97.6438C158.591 97.6438 158.529 97.6438 158.404 97.7687C158.279 97.8312 158.154 97.8937 158.154 97.9561V98.0186V98.0186ZM157.904 98.1435L158.029 97.9561V97.7687L157.842 98.0811L157.904 98.1435ZM175.708 99.3305C175.458 99.3305 175.271 99.3305 175.083 99.268C173.397 98.8307 171.897 97.7062 170.898 96.207L170.273 95.3948C169.961 95.0825 169.211 93.2709 169.149 92.4587L169.086 90.4597C169.086 90.1473 169.336 89.0229 169.461 88.773L169.524 88.3982L169.711 87.5236C169.836 87.2112 169.898 86.8364 169.898 86.8364L169.836 86.7115C169.836 86.4616 170.086 85.8369 170.523 85.1497C170.773 84.65 170.898 84.4626 170.96 84.4626V84.65C170.96 84.8374 170.96 84.8374 171.023 84.8374C171.085 84.7749 171.148 84.5875 171.148 84.4626V84.4001C171.148 84.0253 171.523 82.9633 171.773 82.5885C171.835 82.526 171.897 82.4635 171.897 82.401V82.3386C171.897 82.2761 171.96 82.1512 172.085 82.0887C172.46 81.5265 173.709 79.4025 173.709 79.2775C173.709 79.0901 174.271 78.5279 174.771 78.3405C175.021 78.2155 175.146 78.2155 175.271 78.2155L175.771 78.3405L176.895 78.9027L177.457 79.34C178.02 78.6528 177.957 78.403 179.019 78.0281C179.331 77.8407 179.519 77.7783 179.706 77.7783C179.956 77.7783 180.206 77.7782 180.643 77.8407C181.955 77.9657 183.08 78.5279 184.017 79.34C186.078 81.2141 186.328 81.464 186.828 82.8383C187.14 83.6504 187.453 85.3996 187.453 86.0868V86.3367C187.203 87.3362 186.765 88.4607 186.578 88.7105L186.266 89.2728C186.141 89.5851 185.454 90.772 185.141 91.1469L184.142 92.7086C183.954 92.896 183.829 93.1459 183.829 93.1459C183.829 93.2084 183.704 93.2709 183.579 93.3958C183.454 93.4583 183.33 93.5832 183.33 93.6457C183.33 93.7081 183.205 93.8956 183.08 94.0205L182.33 95.02C182.018 95.3324 181.768 95.6447 181.705 95.6447C181.643 95.6447 181.643 95.7072 181.643 95.7697C181.643 95.8946 181.58 96.0195 181.455 96.0195L181.268 96.1445V96.207C181.268 96.2694 181.206 96.3319 181.143 96.3319C181.081 96.3319 180.831 96.4568 180.706 96.7067L179.706 97.6438L179.082 98.0811L178.207 98.6433C177.77 99.0181 176.583 99.3305 175.708 99.3305V99.3305ZM172.897 95.4573C173.272 95.4573 173.522 95.4573 174.021 95.3324C174.209 95.3324 174.521 95.2074 174.771 95.0825L176.021 94.4578C176.208 94.3328 176.583 94.0205 176.895 93.8956C177.582 93.5207 177.832 93.2709 178.769 92.2089L179.769 91.2093C179.894 91.1469 179.956 90.9595 179.956 90.897C179.956 90.8345 180.019 90.7721 180.081 90.7721C180.144 90.7721 180.393 90.4597 180.643 90.1473C180.831 89.7725 181.206 89.2728 181.393 89.0229L183.142 86.3991L183.392 85.8994C183.392 85.8369 183.454 85.587 183.579 85.3996C184.142 84.4626 184.454 83.4006 184.454 82.6509C184.454 82.3386 184.392 82.0887 184.204 81.9638C183.767 81.6514 182.955 81.464 182.205 81.464C181.768 81.5265 181.393 81.5889 181.143 81.7139C180.956 81.8388 180.706 81.9013 180.643 81.9013C180.643 81.9013 180.331 82.1512 179.956 82.3386C179.644 82.5885 179.331 82.8383 179.269 82.8383C179.206 82.8383 179.144 83.0257 179.144 83.2132C179.144 83.5255 179.082 83.6504 179.019 83.6504C178.957 83.6504 178.894 83.588 178.894 83.463C178.832 83.2756 178.832 83.1507 178.707 83.1507L178.457 83.2132C178.082 83.2132 178.02 83.1507 177.77 82.9008C177.645 82.6509 177.52 82.5885 177.332 82.5885C177.145 82.5885 176.895 82.7134 176.583 83.0882C176.395 83.3381 176.145 83.5255 176.083 83.5255H176.021L175.896 83.7754C175.833 83.9628 175.771 84.0877 175.646 84.0877L175.521 84.1502V84.2127C175.521 84.7124 175.396 84.9623 175.021 85.1497C174.771 85.2747 174.709 85.3371 174.709 85.5246V85.587C174.709 85.6495 174.646 85.8994 174.521 86.0243L174.271 86.5241C174.271 86.5865 174.209 86.7115 174.084 86.774C174.021 86.8364 173.959 86.8989 173.959 86.9614L174.021 87.2737C174.021 87.4611 173.959 87.5861 173.834 87.7735C173.647 88.0234 173.522 88.2108 173.522 88.2732V88.3357C173.522 88.4607 173.459 88.8355 173.147 89.7725C172.835 90.8345 172.585 91.7716 172.585 92.1464L172.522 92.5212C172.46 92.7711 172.397 93.6457 172.397 94.2704V94.8951C172.46 95.3948 172.522 95.3948 172.897 95.4573V95.4573ZM171.71 83.4006C171.835 83.4006 171.835 83.3381 171.835 83.2756L171.773 83.1507L171.648 83.2756L171.71 83.4006ZM170.086 87.4611C170.086 87.3987 170.086 87.3362 170.023 87.2737L169.961 87.3362C170.023 87.4611 170.023 87.4611 170.086 87.4611V87.4611ZM169.898 87.8984L170.023 87.836C170.023 87.7735 170.023 87.711 169.961 87.711C169.898 87.711 169.836 87.7735 169.836 87.836L169.898 87.8984ZM195.324 99.268H195.199C195.074 99.268 194.949 99.2055 194.887 99.1431C194.762 99.0181 194.699 98.9556 194.574 98.9556L194.137 99.2055L193.949 99.1431C193.825 99.0806 193.7 98.9556 193.7 98.8307C193.7 98.5808 193.512 98.4559 193.2 98.4559C192.95 98.4559 192.388 98.1435 192.325 98.0186C192.325 97.9561 192.138 97.7062 191.888 97.3939C191.638 97.0815 191.451 96.8317 191.451 96.7692C191.451 96.7067 191.388 96.6442 191.326 96.5818C191.201 96.4568 191.138 96.3944 191.138 96.3319L191.326 95.8946L191.138 95.6447L191.201 95.5823C191.263 95.5823 191.263 95.5198 191.263 95.3948C191.201 95.2699 191.201 95.0825 191.201 94.9576C191.138 94.7701 191.138 94.6452 191.076 94.5827L190.951 93.8956C190.951 93.5207 190.888 93.021 190.826 92.7711L190.763 92.2713V91.959C190.763 91.8965 190.763 91.7091 190.826 91.5842L190.951 91.3968L190.763 91.4592C190.701 91.4592 190.639 91.4592 190.639 91.3968L190.826 91.2093L190.763 91.1469C190.763 91.0844 190.701 90.4597 190.701 89.7101C190.701 88.9604 190.639 88.3357 190.639 88.2732L190.701 87.7735L190.576 87.4611L190.639 87.2112C190.701 87.0238 190.701 86.8364 190.701 86.774C190.639 86.7115 190.514 82.0887 190.514 80.2771C190.514 79.0901 190.576 78.8402 191.013 78.8402H191.263C191.638 78.8402 192.325 79.2151 192.325 79.4025C192.325 79.4025 192.388 79.4649 192.513 79.4649L192.763 79.5899C192.887 79.8398 193.45 80.1521 193.575 80.1521H193.637C193.7 80.1521 193.762 80.2146 193.825 80.3395C193.887 80.4645 194.012 80.5894 194.074 80.5894C194.199 80.5894 194.262 80.7768 194.324 80.9642C194.324 81.0892 194.449 81.3391 194.574 81.4015C194.762 81.5889 194.949 82.5885 194.949 84.4001C194.949 85.3371 195.011 85.712 195.074 85.712L195.261 85.7744L195.199 85.8994L194.949 86.2742C194.949 86.5241 194.949 86.5865 195.074 86.649H195.136C195.324 86.649 195.699 86.3367 195.699 86.0868V85.9618C195.699 85.8994 195.699 85.8369 195.761 85.8369C195.824 85.7744 195.824 85.6495 195.824 85.587C195.824 85.4621 195.886 85.3996 196.011 85.3996C196.073 85.3996 196.136 85.3371 196.136 85.2747C196.073 85.2122 196.011 85.1497 195.949 85.1497C195.824 85.1497 195.824 85.0873 195.824 85.0248L195.886 84.7749L196.011 84.65L195.949 84.5875H195.824C195.824 84.4626 196.073 84.4001 196.261 84.4001H196.323C196.448 84.4001 196.636 84.0877 196.636 83.9628L196.573 83.8379H196.636C196.761 83.8379 197.323 82.9633 197.448 82.5885C197.573 82.3386 197.823 81.9013 198.197 81.4015L198.447 80.9642C198.447 80.8393 198.51 80.7143 198.572 80.5894L198.822 80.0896L198.697 80.1521C198.635 80.2146 198.572 80.2146 198.51 80.2146C198.385 80.2146 198.26 80.2771 198.197 80.402L198.01 80.5269L197.948 80.402C197.948 80.3395 197.948 80.3395 198.01 80.3395C198.072 80.2771 198.197 80.2146 198.197 80.1521C198.197 80.0272 198.76 79.1526 199.072 78.8402C199.197 78.6528 199.447 78.4654 199.572 78.403L200.321 78.1531L200.946 78.278C201.508 78.3405 202.383 78.7153 202.945 79.1526L203.32 79.34C203.382 79.34 203.57 79.4649 203.757 79.6524C203.945 79.8398 204.195 80.0272 204.32 80.0896C204.694 80.2771 205.506 81.3391 205.944 82.2761C206.256 82.9008 206.319 83.0882 206.319 83.463C206.319 83.9628 206.381 84.3376 206.506 84.3376C206.568 84.3376 206.568 84.4626 206.568 84.5875L206.506 84.7749H206.693V84.8374C206.693 84.8999 206.693 85.0248 206.568 85.2122L206.443 85.5246C206.443 85.587 206.443 85.587 206.506 85.587C206.568 85.587 206.631 85.5246 206.631 85.3996C206.631 85.2747 206.881 84.9623 207.068 84.9623C207.193 84.9623 207.381 84.8374 207.381 84.7749L207.318 84.7124C207.256 84.7124 207.193 84.7124 207.193 84.65C207.193 84.5875 207.256 84.525 207.318 84.525C207.381 84.525 207.505 84.2127 207.505 84.0253L207.443 83.8379L207.381 83.7754C207.381 83.7129 207.443 83.6504 207.505 83.6504C207.568 83.6504 207.568 83.588 207.568 83.588V83.5255L207.63 83.463L207.693 83.5255C207.818 83.5255 207.943 83.2756 207.943 83.0882V83.0257C207.943 82.9633 208.005 82.7134 208.13 82.526L208.318 82.3386V82.401C208.318 82.4635 208.318 82.526 208.38 82.526H208.443C208.567 82.4635 209.005 81.9638 209.005 81.7139V81.5889L208.692 81.8388L208.755 81.5889C208.942 81.3391 209.13 81.0892 209.255 81.0892H209.317L209.255 81.0267C209.255 80.9018 209.817 79.9647 210.129 79.7148L210.192 79.6524V79.7148L210.004 80.0896L209.942 80.2771L210.067 80.2146C210.192 80.1521 210.567 79.6524 210.567 79.5274L210.442 79.4025C210.442 79.34 210.504 79.1526 210.691 78.9652L210.941 78.7153V79.0901C211.004 79.0901 211.066 79.0277 211.066 78.9027C211.066 78.8402 211.129 78.7778 211.191 78.7778C211.316 78.7778 211.316 78.7153 211.316 78.6528L211.254 78.403C211.254 78.1531 211.691 77.7158 211.941 77.7158H212.066L211.941 77.341H212.128C212.191 77.341 212.191 77.341 212.191 77.2785C212.191 77.1535 212.253 77.0911 212.316 77.0911C212.378 77.0911 212.441 77.0286 212.503 76.9661L212.566 76.9037H212.628C212.691 76.9037 212.94 76.9037 213.19 76.8412C213.378 76.7787 213.503 76.7787 213.628 76.7787C213.815 76.7787 214.002 76.8412 214.252 76.9037C214.627 77.0286 215.002 77.216 215.127 77.341C215.564 77.7158 216.126 78.1531 216.689 78.5279C217.001 78.7778 217.251 79.0277 217.376 79.2775L217.563 79.7148L217.688 79.9647C217.751 80.0272 217.813 80.0896 217.813 80.1521L217.938 80.402C218.313 80.9018 218.563 81.7763 218.563 83.0882V87.2737C218.563 87.2737 218.625 87.8984 218.625 88.6481L218.75 91.2718L218.813 92.7086L218.688 92.5212C218.625 92.4587 218.625 92.3963 218.563 92.3963L218.5 92.5837L218.563 92.7086C218.625 92.7711 218.625 92.9585 218.625 93.2084V93.5832C218.625 94.0205 218.625 94.2704 218.688 94.3953L218.75 94.5203L218.688 94.7701L218.563 94.8951L218.438 94.8326C218.438 94.7701 218.313 94.7701 218.25 94.7701C218.188 94.7701 218.125 94.7701 218.125 94.8951H218.25C218.375 94.8951 218.375 94.8951 218.375 94.9576C218.375 95.02 218.375 95.02 218.313 95.02C218.25 95.02 218.25 95.145 218.25 95.3324C218.25 95.5198 218.188 95.5823 218.125 95.5823C218.063 95.5823 218 95.5823 218 95.4573C217.938 95.3948 217.876 95.3324 217.751 95.3324C217.751 95.3324 217.688 95.3324 217.688 95.3948C217.688 95.4573 217.563 95.5198 217.501 95.5823C217.376 95.5823 217.313 95.7072 217.313 95.7697C217.313 95.8321 217.251 95.8946 217.126 95.8946C217.063 95.8946 217.063 95.8946 217.063 95.8321L217.126 95.5823L217.188 95.4573L217.063 95.3948C217.001 95.3948 216.938 95.3324 216.876 95.2699L216.814 95.145V95.2074C216.814 95.2699 216.751 95.3324 216.626 95.3324H216.439C216.251 95.3324 216.064 95.2699 216.064 95.2074C216.064 95.145 215.939 94.8951 215.689 94.5203L215.314 93.8331C215.314 93.7706 215.252 93.7082 215.127 93.5832C215.002 93.5207 214.877 93.3333 214.814 93.2084C214.69 92.896 214.502 91.7091 214.44 91.2093C214.44 91.0844 214.44 90.8345 214.377 90.7721C214.252 90.3972 214.127 87.8984 214.127 85.712L214.19 83.463C214.19 83.0882 214.19 82.7134 214.127 82.5885V82.3386L213.628 82.7759C213.628 82.8383 213.503 83.0882 213.315 83.3381L213.003 83.8379C213.003 83.9003 212.753 84.0877 212.503 84.3376C212.253 84.65 212.003 84.8999 212.003 85.0248C212.003 85.3371 211.941 85.4621 211.878 85.4621C211.816 85.4621 211.629 85.712 211.441 86.0243L210.754 86.9614C210.504 87.2737 210.317 87.5861 210.317 87.7735V87.8984L210.379 87.836C210.379 87.7735 210.504 87.711 210.567 87.711C210.629 87.711 210.691 87.7735 210.691 87.836C210.691 87.9609 210.504 88.3357 210.254 88.7105C209.629 89.6476 209.692 89.6476 209.067 90.8345C208.692 91.5217 208.505 91.8965 208.443 91.8965H208.38L208.443 91.6466C208.443 91.5842 208.443 91.5842 208.38 91.5842C208.318 91.5842 208.193 91.6466 208.068 91.834L208.005 92.0839L208.13 92.5212C208.13 92.5837 208.13 92.5837 208.068 92.5837L207.943 92.4587L207.818 92.3963L207.755 92.5212C207.755 92.5837 207.693 92.7711 207.63 92.8336C207.256 93.4583 206.881 94.3953 206.881 94.6452V94.7701L206.943 94.7077C207.006 94.5827 207.068 94.4578 207.068 94.3329C207.068 94.2079 207.131 94.1454 207.193 94.1454C207.318 94.1454 207.318 94.083 207.318 94.0205L207.256 93.958H207.318C207.381 93.958 207.443 93.8331 207.443 93.7706C207.443 93.6457 207.505 93.5832 207.505 93.5832C207.568 93.5832 207.63 93.6457 207.63 93.7081C207.63 93.7706 207.568 93.8331 207.505 93.8956L207.443 94.1454C207.443 94.2079 207.381 94.3329 207.318 94.3329L207.256 94.4578L207.193 94.7077C207.068 94.8326 206.943 95.3324 206.631 96.207C206.568 96.4568 206.506 96.8941 206.506 97.2065C206.506 97.5188 206.506 97.8312 206.381 97.9561L206.256 98.0811V98.0186L206.194 97.8937L206.131 98.0186L205.944 98.0811H205.881V97.9561C205.881 97.8937 205.881 97.8937 205.819 97.8937C205.756 97.8937 205.694 97.8937 205.694 97.9561V98.0186C205.694 98.1435 205.569 98.206 205.444 98.206H205.194L205.257 98.2685C205.319 98.3309 205.381 98.3934 205.381 98.4559L205.319 98.6433C205.257 98.6433 205.132 98.6433 205.069 98.5808L204.819 98.5184C204.569 98.4559 204.507 98.3309 204.444 98.0186V97.8312L204.382 97.8937C204.32 97.9561 204.257 97.9561 204.195 97.9561C203.945 97.9561 203.57 97.7687 203.57 97.5188L203.507 97.4564L203.258 97.5188C203.008 97.5188 202.758 97.269 202.633 96.9566C202.633 96.8317 202.508 96.7067 202.445 96.6442C202.32 96.5818 202.258 96.4568 202.258 96.3319C202.258 96.082 202.133 95.8946 201.633 95.3948C201.508 95.3324 201.508 95.2074 201.508 95.0825C201.571 94.9576 201.633 94.2079 201.633 93.4583C201.696 92.6462 201.696 91.834 201.696 91.6466C201.758 91.4592 201.758 90.7096 201.821 90.0224C201.821 88.8979 201.883 88.5856 202.008 88.5856H202.071C202.133 88.5856 202.196 88.4607 202.258 88.0858V87.8984C202.258 87.7735 202.258 87.6485 202.196 87.6485L202.071 87.8984L202.008 88.2108C201.946 87.9609 201.883 87.9609 201.883 87.3987C201.883 86.774 202.008 85.9618 202.071 85.8994L202.133 85.7744H202.071L202.008 85.712C202.008 85.6495 202.008 85.3371 201.946 85.0248L201.883 84.525L201.508 85.2747L201.571 85.3996C201.571 85.4621 201.571 85.4621 201.508 85.4621C201.446 85.4621 201.196 85.712 201.009 86.0868C200.696 86.7115 200.571 86.9614 200.446 86.9614L200.321 86.8989C200.196 86.8989 199.947 87.1488 199.884 87.3362L199.947 87.836C199.947 88.1483 199.759 88.7105 199.509 88.8979H199.447L199.509 88.8355V88.7105L199.384 88.8355C199.134 89.0229 198.947 89.2728 198.947 89.3977H199.01C199.072 89.3977 199.134 89.3352 199.197 89.2728L199.322 89.1478V89.2728C199.322 89.4602 199.134 89.8975 199.01 89.8975C198.947 89.8975 198.947 90.0224 198.885 90.1473L198.822 90.5222C198.76 90.5222 198.697 90.5222 198.697 90.5846L198.135 91.959L197.698 92.896C197.51 93.3333 197.385 93.5207 197.323 93.5207L197.26 93.1459L196.948 93.6457C196.886 93.6457 196.823 93.7706 196.823 93.958C196.761 94.1454 196.698 94.3329 196.636 94.3329L196.573 94.5827L196.823 94.4578L197.073 94.2079L197.135 94.2704L196.698 95.3948C196.386 96.082 196.198 97.2065 196.198 97.9561C196.198 98.3934 196.198 98.7682 196.136 98.8307C196.073 98.9556 195.699 99.1431 195.324 99.268V99.268ZM211.504 78.5279L211.816 78.2155L211.753 78.0906H211.629C211.566 78.0906 211.504 78.2155 211.441 78.3405V78.403C211.441 78.4654 211.441 78.5279 211.504 78.5279ZM199.197 78.9652L199.572 78.8402C199.634 78.7778 199.697 78.7778 199.697 78.7153H199.634L199.322 78.8402L199.197 78.9652ZM199.072 80.0896L199.134 80.0272V79.8398C199.072 79.8398 199.01 79.8398 199.01 79.9647C199.01 80.0272 199.01 80.0896 199.072 80.0896V80.0896ZM209.754 80.6519L209.879 80.4645H209.817L209.692 80.5269C209.692 80.5894 209.692 80.6519 209.754 80.6519V80.6519ZM197.823 81.0892C197.76 81.0892 197.76 81.0267 197.76 80.9018C197.823 80.5894 197.823 80.5894 198.072 80.5894C198.197 80.5894 198.385 80.5894 198.385 80.6519C198.385 80.7143 197.948 81.0892 197.823 81.0892ZM212.566 81.2141L212.691 81.0892C212.753 81.0267 212.753 80.9642 212.753 80.9018V80.8393C212.691 80.8393 212.691 80.9018 212.691 80.9018L212.566 81.1516V81.2141ZM197.385 82.2136L197.135 82.0887L197.26 81.8388L197.698 81.2141H197.76L197.823 81.3391C197.823 81.5265 197.76 81.7763 197.635 81.9638C197.51 82.1512 197.448 82.2136 197.385 82.2136V82.2136ZM212.753 81.6514L212.878 81.5889L212.815 81.464L212.691 81.5889C212.691 81.6514 212.691 81.6514 212.753 81.6514ZM213.44 81.7139C213.503 81.7139 213.503 81.7139 213.503 81.5889C213.503 81.5265 213.44 81.5265 213.44 81.5265L213.378 81.6514L213.44 81.7139ZM213.565 82.2136C213.628 82.2136 213.69 82.1512 213.753 82.0887C213.815 82.0262 213.877 81.8388 213.877 81.7139C213.877 81.6514 213.877 81.5889 213.815 81.5889C213.69 81.5889 213.628 81.6514 213.628 81.7139L213.753 81.9638L213.628 82.1512C213.565 82.1512 213.565 82.1512 213.565 82.2136V82.2136ZM211.504 81.9013L211.566 81.7763L211.504 81.6514V81.9013V81.9013ZM212.753 82.526C212.94 82.526 213.19 82.401 213.315 82.2136L213.378 82.0262C213.378 81.9638 213.378 81.9638 213.253 81.9638C213.19 81.9638 213.128 82.0262 213.128 82.1512C213.065 82.2761 212.94 82.401 212.815 82.401L212.378 82.2136V82.3386C212.441 82.4635 212.566 82.526 212.753 82.526ZM196.886 83.1507C196.823 83.1507 196.761 83.0882 196.761 83.0257V82.9008C196.761 82.7759 196.761 82.7134 196.823 82.7134L196.886 82.7759H197.01L196.886 82.7134L196.823 82.526L196.886 82.401C196.948 82.3386 197.01 82.2761 197.073 82.2761C197.135 82.2761 197.135 82.401 197.135 82.5885V82.8383C197.073 83.0257 197.01 83.1507 196.886 83.1507V83.1507ZM211.379 82.4635C211.379 82.401 211.254 82.3386 211.191 82.3386L211.129 82.401C211.129 82.4635 211.191 82.4635 211.254 82.4635H211.379V82.4635ZM212.441 83.2756L212.503 83.2132L212.441 83.1507C212.441 83.0257 212.441 82.9633 212.503 82.9008L212.566 82.8383L212.503 82.7759C212.441 82.7759 212.378 82.8383 212.316 82.9008C212.316 82.9633 212.378 83.2756 212.441 83.2756ZM211.941 83.8379C212.003 83.8379 212.066 83.7754 212.066 83.7129V83.6504H212.003C211.941 83.6504 211.941 83.6504 211.941 83.7129V83.8379V83.8379ZM196.448 83.9628V83.7754L196.511 83.9003L196.448 83.9628ZM207.88 83.9628L208.005 83.7754H207.943C207.88 83.7754 207.818 83.8379 207.818 83.9003C207.818 83.9628 207.818 83.9628 207.88 83.9628V83.9628ZM212.503 83.9628L212.628 83.9003C212.628 83.8379 212.628 83.8379 212.566 83.8379C212.503 83.8379 212.503 83.8379 212.503 83.9003V83.9628V83.9628ZM213.065 84.4001H213.003L213.065 84.1502C213.19 83.9628 213.315 83.8379 213.378 83.8379V83.9003C213.378 84.0877 213.253 84.3376 213.065 84.4001ZM211.004 85.2122L211.316 85.0248L211.441 84.8374L211.379 84.7749C211.316 84.7124 211.316 84.5875 211.316 84.525C211.316 84.4001 211.316 84.2752 211.379 84.2752L211.504 84.0877V83.9003C211.441 83.9003 211.316 83.9628 211.254 84.2127C211.129 84.3376 211.004 84.4626 210.941 84.4626H210.879L210.754 84.8999C210.629 84.8999 210.629 84.9623 210.629 85.0248L210.754 85.0873L211.004 85.0248L211.066 85.0873L211.004 85.2122ZM211.816 84.2127C211.878 84.2127 211.941 84.0877 211.941 84.0253C211.941 83.9628 211.941 83.9003 211.878 83.9003L211.691 84.2127H211.816V84.2127ZM206.319 84.5875L206.256 84.4626C206.256 84.4001 206.194 84.4001 206.194 84.4001C206.194 84.525 206.256 84.5875 206.256 84.5875H206.319V84.5875ZM210.567 84.5875L210.629 84.4626V84.4001H210.567C210.504 84.4626 210.442 84.525 210.442 84.5875H210.567V84.5875ZM206.256 85.0873L206.381 84.8999L206.256 84.8374C206.194 84.8374 206.194 84.8999 206.194 84.9623C206.194 85.0248 206.194 85.0873 206.256 85.0873V85.0873ZM218.313 85.2122L218.438 85.0248L218.375 84.8999C218.313 84.8999 218.313 84.8374 218.313 84.8374C218.25 84.8374 218.25 84.8999 218.25 85.0248C218.25 85.1497 218.25 85.2122 218.313 85.2122V85.2122ZM201.321 85.0873V85.0248L201.258 84.8999C201.196 84.8999 201.196 84.9623 201.196 85.0248L201.321 85.0873ZM209.317 85.2747C209.38 85.2747 209.442 85.2122 209.442 85.1497C209.442 85.0873 209.38 85.0248 209.317 85.0248C209.255 85.0248 209.255 85.0873 209.255 85.1497C209.255 85.2122 209.255 85.2747 209.317 85.2747ZM208.88 85.3996L209.005 85.2747C209.005 85.2122 209.005 85.2122 208.942 85.2122C208.88 85.2122 208.88 85.2122 208.88 85.2747V85.3996V85.3996ZM210.879 85.7744C210.941 85.7744 211.004 85.712 211.004 85.6495L210.941 85.4621L210.816 85.3996L210.754 85.5246V85.6495L210.816 85.7744H210.879V85.7744ZM211.254 85.6495C211.316 85.6495 211.379 85.587 211.379 85.5246C211.379 85.4621 211.379 85.4621 211.316 85.4621H211.254L211.191 85.587C211.191 85.6495 211.254 85.6495 211.254 85.6495V85.6495ZM200.696 86.0868C200.759 86.0868 200.821 86.0243 200.821 85.9618C200.821 85.8994 200.759 85.7744 200.696 85.7744C200.634 85.7744 200.571 85.8369 200.571 85.9618L200.634 86.0868H200.696V86.0868ZM211.941 86.1493C211.878 86.1493 211.816 86.0868 211.816 86.0243C211.816 85.9618 211.878 85.8994 211.941 85.8994H212.003V85.9618C212.003 86.0868 212.003 86.1493 211.941 86.1493V86.1493ZM218.375 86.5241L218.438 86.3991C218.5 86.2742 218.5 86.1493 218.5 86.0868C218.5 86.0243 218.5 85.9618 218.438 85.9618C218.375 85.9618 218.375 86.0243 218.375 86.1493V86.5241V86.5241ZM202.196 87.0863C202.258 87.0863 202.32 86.7115 202.32 86.3367V86.2742L202.258 86.5241L202.196 87.0863ZM209.005 86.4616L209.192 86.2742L208.942 86.3991C208.942 86.4616 208.942 86.4616 209.005 86.4616V86.4616ZM207.381 86.5241C207.443 86.5241 207.443 86.4616 207.443 86.3991V86.3367L207.318 86.3991C207.318 86.4616 207.318 86.5241 207.381 86.5241V86.5241ZM208.443 86.5241L208.567 86.4616L208.38 86.3367L208.318 86.3991C208.318 86.4616 208.38 86.5241 208.443 86.5241V86.5241ZM209.505 86.8989C209.567 86.8989 209.629 86.774 209.629 86.649L209.692 86.4616C209.629 86.4616 209.567 86.5241 209.505 86.649L209.442 86.8364L209.505 86.8989ZM209.942 86.7115L210.004 86.5865L209.879 86.5241C209.817 86.5241 209.817 86.5241 209.817 86.5865L209.942 86.7115ZM207.131 86.8989L207.193 86.774L207.131 86.649V86.8989V86.8989ZM210.879 87.5236C210.879 87.3362 211.191 86.774 211.316 86.774L211.441 86.8364L211.379 86.9614C211.254 87.1488 210.941 87.5236 210.879 87.5236V87.5236ZM208.443 87.1488L208.505 87.0238L208.443 86.8989L208.38 87.0238L208.443 87.1488ZM195.136 87.1488L195.199 87.0863L195.136 86.9614C195.074 86.9614 195.011 87.0238 195.011 87.0863L195.136 87.1488ZM200.259 87.3987L200.196 87.2737C200.196 87.2113 200.259 87.1488 200.384 87.1488H200.509L200.259 87.3987ZM208.88 88.0234C208.942 88.0234 208.942 87.8984 208.942 87.836C208.942 87.7735 209.005 87.7735 209.005 87.7735H209.067C209.13 87.7735 209.13 87.7735 209.13 87.6485V87.5861H209.005L208.817 87.9609C208.817 88.0234 208.817 88.0234 208.88 88.0234V88.0234ZM210.067 87.7735L209.942 87.6485H209.817V87.711L210.004 87.7735H210.067V87.7735ZM207.943 87.9609C208.005 87.9609 208.005 87.9609 208.005 87.8984L207.943 87.7735L207.818 87.8984L207.943 87.9609ZM209.567 88.2732C209.629 88.2732 209.629 88.2108 209.629 88.0858C209.629 88.0234 209.629 88.0234 209.567 88.0234H209.38L209.255 87.9609L209.13 88.0234L209.067 88.0858L209.13 88.0234C209.255 88.0234 209.38 88.0858 209.442 88.1483L209.567 88.2732ZM209.442 89.4602C209.505 89.4602 209.629 89.3977 209.754 89.2728L209.879 89.0229L210.129 88.5856C210.254 88.3982 210.379 88.2108 210.379 88.0858C210.379 88.0234 210.317 87.9609 210.254 87.9609L210.067 88.2108L209.442 89.4602ZM207.943 88.3357L208.005 88.2732L207.943 88.2108C207.943 88.1483 207.88 88.0858 207.818 88.0858C207.818 88.0858 207.755 88.0858 207.755 88.1483C207.755 88.2732 207.88 88.3357 207.943 88.3357V88.3357ZM199.572 88.4607L199.697 88.3982L199.509 88.2732V88.3357C199.509 88.3982 199.509 88.4607 199.572 88.4607ZM209.317 88.773C209.317 88.773 209.317 88.6481 209.255 88.5856H209.192L209.255 88.773H209.317ZM208.318 88.8355L208.38 88.773C208.505 88.7105 208.505 88.6481 208.505 88.5856C208.443 88.5856 208.38 88.5856 208.38 88.7105L208.318 88.8355ZM202.071 90.7096V90.6471C202.133 90.5846 202.196 90.1473 202.196 89.6476C202.196 89.2103 202.196 88.773 202.133 88.773C202.071 88.773 202.071 88.8355 202.071 88.8979C202.071 89.0229 202.071 89.5226 202.008 89.9599C202.008 90.4597 202.008 90.7096 202.071 90.7096V90.7096ZM207.88 89.4602C207.943 89.4602 208.068 89.3977 208.13 89.2728L208.193 88.9604H208.13C208.13 88.9604 208.13 89.1478 207.943 89.2728L207.88 89.4602ZM207.193 89.2103C207.256 89.2103 207.256 89.1478 207.256 89.0854V89.0229L207.131 89.0854C207.131 89.1478 207.131 89.2103 207.193 89.2103V89.2103ZM207.505 89.5226L207.568 89.4602L207.505 89.3352V89.5226V89.5226ZM206.756 89.6476L206.818 89.5851L206.881 89.4602V89.3977L206.756 89.5226V89.6476V89.6476ZM209.255 90.1473C209.317 90.1473 209.442 90.0224 209.442 89.9599C209.442 89.835 209.442 89.7101 209.38 89.5851C209.38 89.5226 209.317 89.5226 209.317 89.5226C209.255 89.5226 209.255 89.5851 209.192 89.7725L209.067 90.0849C209.067 90.1473 209.13 90.1473 209.255 90.1473ZM208.13 89.9599L208.193 89.835C208.193 89.7725 208.193 89.7725 208.13 89.7725L208.005 89.835L208.13 89.9599ZM208.567 90.0224C208.63 90.0224 208.692 89.9599 208.755 89.835C208.755 89.7725 208.692 89.7725 208.63 89.7725C208.567 89.7725 208.505 89.835 208.505 89.8975L208.567 90.0224ZM198.697 90.3348C198.76 90.3348 198.822 90.2723 198.822 90.2098C198.822 90.1473 198.697 89.9599 198.635 89.9599V90.0224L198.572 90.2723C198.572 90.3348 198.572 90.3348 198.635 90.3348H198.697ZM208.942 90.5222C209.005 90.5222 209.067 90.4597 209.067 90.3348C209.067 90.2723 209.067 90.2723 209.005 90.2723H208.942C208.88 90.2723 208.88 90.3348 208.88 90.3972C208.88 90.4597 208.88 90.5222 208.942 90.5222V90.5222ZM207.443 90.5846V90.4597C207.443 90.3348 207.443 90.3348 207.381 90.3348C207.318 90.3972 207.318 90.4597 207.318 90.5222L207.443 90.5846ZM208.068 90.5846C208.13 90.5846 208.13 90.5222 208.13 90.4597C208.13 90.3348 208.068 90.3348 208.005 90.3348V90.4597L208.068 90.5846ZM207.63 90.7721L207.755 90.6471L207.693 90.5846C207.63 90.5846 207.568 90.6471 207.568 90.7096C207.568 90.7096 207.568 90.7721 207.63 90.7721ZM208.567 91.4592C208.63 91.4592 208.692 91.3968 208.755 91.2718C208.817 91.1469 208.88 90.9595 208.88 90.8345C208.88 90.7721 208.817 90.7096 208.755 90.7096C208.692 90.7096 208.692 90.7096 208.63 90.9595L208.567 91.1469C208.505 91.2093 208.505 91.2718 208.505 91.3968L208.567 91.4592ZM206.818 91.7716C206.881 91.7716 206.943 91.7091 206.943 91.6466C206.943 91.5842 206.943 91.5217 207.068 91.4592C207.131 91.3968 207.193 91.2093 207.193 91.0844L207.256 90.7721C206.881 91.1469 206.756 91.3968 206.756 91.6466C206.756 91.7091 206.756 91.7716 206.818 91.7716V91.7716ZM208.005 90.9595V90.897C208.005 90.8345 208.005 90.7721 207.943 90.7721C207.88 90.7721 207.88 90.8345 207.88 90.897L208.005 90.9595ZM202.071 91.3968C202.133 91.3343 202.133 91.2718 202.133 91.1469L202.008 90.9595C201.946 90.9595 201.946 91.0219 201.946 91.1469L202.008 91.3343C202.008 91.3968 202.008 91.3968 202.071 91.3968V91.3968ZM197.698 92.0839C197.76 92.0839 197.885 91.959 198.01 91.7716L198.197 91.3343C198.197 91.2718 198.135 91.2093 198.072 91.2093C198.072 91.2093 197.948 91.3343 197.948 91.5217L197.698 92.0839ZM196.886 92.0839C196.948 92.0839 196.948 92.0215 196.948 91.959C196.948 91.959 196.948 91.8965 196.886 91.8965L196.761 91.959L196.886 92.0839ZM206.631 92.1464L206.756 91.959L206.693 91.8965L206.631 91.959C206.568 91.959 206.568 92.0215 206.568 92.0839C206.568 92.1464 206.568 92.1464 206.631 92.1464V92.1464ZM207.131 92.3338L207.193 92.0839C207.131 92.0839 207.131 92.0839 207.131 92.1464C207.068 92.1464 207.006 92.2089 207.006 92.2713C207.006 92.3338 207.068 92.3338 207.131 92.3338ZM197.448 92.896C197.573 92.5837 197.698 92.3963 197.698 92.2713V92.2089C197.635 92.2089 197.573 92.3963 197.51 92.5837L197.448 92.896ZM206.756 92.3963L206.818 92.3338L206.756 92.2713H206.818L206.756 92.2089V92.3963ZM206.568 93.0834C206.631 93.0834 206.693 93.021 206.756 92.896L206.818 92.7086L206.693 92.8336C206.631 92.896 206.568 92.9585 206.568 93.021V93.0834V93.0834ZM207.755 93.2084H207.693V93.1459C207.693 93.0834 207.818 92.8336 207.943 92.8336C208.005 92.8336 208.005 92.8336 208.005 92.896C208.005 92.9585 208.005 93.021 207.88 93.1459L207.755 93.2084ZM218.875 93.5832L218.813 93.4583C218.813 93.3958 218.813 93.3958 218.875 93.3958C218.938 93.3958 219 93.3958 219 93.4583L218.875 93.5832ZM196.261 93.958L196.323 93.8956L196.198 93.7706L196.136 93.8331C196.136 93.8956 196.198 93.958 196.261 93.958ZM198.447 94.2704H198.385V94.083H198.447V94.2704ZM217.688 94.3953L217.813 94.3329L217.626 94.2704C217.626 94.3329 217.626 94.3953 217.688 94.3953ZM218.25 94.5203L218.313 94.3953C218.313 94.3329 218.313 94.3329 218.25 94.3329L218.125 94.3953L218.25 94.5203ZM206.818 95.2699L206.943 95.0825L206.756 94.8326V95.2699H206.818V95.2699Z" fill="#757575"/>
</svg>
