<svg width="100" height="102" viewBox="0 0 100 102" fill="none" xmlns="http://www.w3.org/2000/svg">
<path d="M77.1046 0H22.8954C10.2706 0 0 10.0441 0 22.3898V47.2032C0 59.5493 10.2706 69.5929 22.8954 69.5929H38.317L61.1376 87.3757L78.7033 101.063V78.7941V69.539C90.5855 68.7345 100 59.0243 100 47.2032V22.3898C100 10.0436 89.7289 0 77.1046 0ZM89.1211 47.2032C89.1211 53.5602 83.7407 58.714 77.1046 58.714H67.8244V78.7941L42.0555 58.714H22.8954C16.2588 58.714 10.8789 53.5602 10.8789 47.2032V22.3898C10.8789 16.0327 16.2588 10.8789 22.8954 10.8789H77.1041C83.7403 10.8789 89.1206 16.0327 89.1206 22.3898V47.2032H89.1211Z" fill="#008080"/>
</svg>
