<?xml version="1.0" standalone="no"?>
<!DOCTYPE svg PUBLIC "-//W3C//DTD SVG 20010904//EN"
 "http://www.w3.org/TR/2001/REC-SVG-20010904/DTD/svg10.dtd">
<svg version="1.0" xmlns="http://www.w3.org/2000/svg"
 width="816.000000pt" height="816.000000pt" viewBox="0 0 816.000000 816.000000"
 preserveAspectRatio="xMidYMid meet">
<metadata>
Created by potrace 1.14, written by Peter Selinger 2001-2017
</metadata>
<g transform="translate(0.000000,816.000000) scale(0.100000,-0.100000)"
fill="#000000" stroke="none">
<path d="M1749 8156 c-2 -2 -33 -7 -69 -11 -35 -3 -67 -8 -70 -10 -3 -1 -27
-6 -54 -9 -27 -4 -54 -10 -58 -12 -5 -3 -24 -8 -41 -11 -18 -3 -40 -9 -49 -14
-10 -5 -18 -7 -18 -5 0 8 -183 -60 -264 -99 -41 -19 -79 -35 -84 -35 -6 0 -12
-3 -14 -8 -3 -7 -125 -82 -134 -82 -2 0 -12 -7 -21 -14 -10 -8 -42 -32 -71
-54 -80 -59 -242 -205 -242 -217 0 -2 -15 -19 -34 -37 -74 -74 -203 -267 -269
-403 -59 -123 -116 -286 -133 -385 -3 -14 -9 -41 -14 -60 -5 -20 -13 -65 -17
-100 -10 -80 -11 -2359 -1 -2415 4 -22 11 -70 17 -107 6 -37 16 -79 21 -93 5
-14 8 -25 5 -25 -2 0 3 -19 11 -42 9 -24 17 -51 19 -61 9 -42 91 -240 115
-277 6 -8 16 -26 22 -40 84 -172 312 -431 508 -575 108 -80 327 -205 359 -205
6 0 11 -4 11 -8 0 -5 6 -9 13 -9 13 -1 118 -37 152 -53 24 -11 184 -50 228
-56 18 -2 43 -6 57 -9 69 -16 199 -18 830 -19 377 -1 687 -3 690 -6 3 -3 25
-21 50 -40 25 -19 47 -37 50 -40 3 -3 23 -18 45 -35 22 -16 42 -31 45 -34 3
-4 32 -26 65 -51 33 -25 62 -47 65 -50 3 -3 66 -53 140 -110 74 -57 141 -110
148 -117 7 -7 17 -13 20 -13 4 0 18 -10 32 -23 21 -18 77 -63 125 -99 24 -18
101 -79 115 -91 8 -6 32 -25 55 -41 22 -16 42 -32 45 -35 3 -4 75 -61 160
-126 85 -66 162 -125 170 -132 8 -6 52 -41 97 -77 45 -36 85 -66 88 -66 3 0
17 -10 30 -23 13 -12 37 -32 52 -44 15 -12 83 -65 151 -117 67 -53 125 -96
128 -96 2 0 19 -13 37 -29 62 -56 135 -110 141 -104 3 4 6 2 6 -4 0 -5 44 -44
98 -85 53 -42 111 -88 127 -102 17 -14 34 -26 39 -26 5 0 14 -6 20 -14 6 -7
63 -53 126 -101 63 -49 120 -93 125 -99 6 -6 35 -29 65 -51 30 -22 57 -42 60
-45 3 -4 31 -25 63 -49 31 -23 57 -47 57 -53 0 -6 3 -9 6 -5 3 3 13 -1 22 -8
10 -7 58 -45 107 -84 50 -39 95 -74 100 -78 81 -64 145 -113 148 -113 1 0 3
564 3 1254 0 690 2 1257 4 1259 3 3 34 8 70 11 108 10 260 42 365 77 161 53
235 87 385 176 105 62 114 67 120 73 3 3 34 28 70 55 76 58 239 218 296 290
21 28 42 52 46 53 5 2 8 10 8 18 0 8 5 14 10 14 6 0 10 7 10 15 0 8 5 15 10
15 6 0 10 7 10 15 0 8 4 15 9 15 5 0 16 15 24 33 9 18 27 49 41 70 14 21 26
41 26 44 0 3 15 38 34 77 42 89 53 116 77 191 39 120 60 215 76 340 10 76 10
2320 1 2400 -7 56 -18 119 -34 190 -9 44 -65 228 -72 240 -4 6 -7 12 -8 15 0
3 -6 18 -12 33 -7 16 -12 30 -12 31 0 6 -123 231 -129 236 -3 3 -26 34 -51 70
-24 36 -49 70 -55 76 -5 6 -35 40 -65 75 -44 52 -114 119 -223 214 -37 32
-162 118 -222 152 -88 51 -239 123 -257 123 -8 0 -18 4 -23 9 -21 19 -273 87
-355 96 -25 3 -56 8 -70 12 -25 8 -4723 16 -4731 9z m4650 -875 c9 -5 32 -12
51 -14 19 -3 35 -6 35 -7 0 -1 11 -3 25 -6 64 -11 205 -74 287 -130 85 -57
192 -158 232 -218 9 -13 28 -41 42 -63 30 -43 92 -176 90 -190 0 -2 6 -20 13
-41 8 -21 18 -61 22 -88 11 -61 12 -2246 1 -2294 -4 -19 -10 -48 -13 -65 -4
-16 -9 -34 -12 -40 -4 -5 -7 -14 -8 -20 -4 -24 -9 -40 -14 -45 -3 -3 -14 -25
-25 -50 -52 -124 -198 -295 -320 -377 -103 -69 -249 -131 -350 -149 -22 -3
-49 -9 -60 -12 -11 -2 -209 -6 -440 -8 -231 -1 -427 -3 -435 -3 -13 -1 -15
-97 -15 -801 1 -440 -2 -800 -6 -800 -4 0 -9 4 -11 8 -1 4 -37 33 -78 65 -81
61 -216 166 -271 209 -78 62 -249 195 -279 218 -19 14 -80 62 -137 107 -57 46
-106 83 -109 83 -2 0 -13 8 -23 17 -23 21 -9 10 -181 143 -74 57 -140 109
-146 115 -7 5 -44 35 -84 65 -70 54 -410 319 -440 343 -8 7 -62 48 -120 92
-58 44 -118 92 -135 107 -16 16 -32 28 -35 29 -3 0 -378 2 -835 4 -781 3 -870
5 -920 22 -11 4 -24 7 -30 8 -17 2 -69 17 -80 24 -5 3 -15 6 -22 7 -7 1 -38
14 -70 29 -195 92 -369 263 -457 449 -28 59 -59 153 -73 221 -10 52 -11 2246
0 2303 61 326 309 602 638 711 67 22 87 27 149 37 19 3 37 8 39 10 9 8 4594 3
4610 -5z"/>
</g>
</svg>
